<svg width="100" height="100" viewBox="0 0 100 100" fill="none" xmlns="http://www.w3.org/2000/svg">
<g clip-path="url(#clip0_6_50)">
<path d="M91.9901 37.9934V35.6341C91.9873 33.6003 91.3173 31.6235 90.0828 30.007C88.8483 28.3906 87.1177 27.2238 85.1562 26.6857V22.0284C86.0657 21.3469 86.804 20.463 87.3125 19.4466C87.8211 18.4303 88.0859 17.3095 88.0859 16.173V7.57923C88.0838 5.6374 87.3114 3.77572 85.9383 2.40264C84.5652 1.02956 82.7036 0.257197 80.7617 0.255012H70.4102C70.0217 0.255015 69.6491 0.409347 69.3744 0.684058C69.0996 0.958769 68.9453 1.33136 68.9453 1.71986V16.173C68.9454 17.3095 69.2102 18.4303 69.7187 19.4466C70.2272 20.463 70.9655 21.3469 71.875 22.0284V27.4768C71.4087 27.7702 70.9767 28.1148 70.5871 28.5044L61.22 37.8801H51.3032C50.6663 37.88 50.0317 37.9586 49.4141 38.1141V37.5882C49.4182 36.032 48.9247 34.5153 48.0058 33.2594C47.0868 32.0035 45.7905 31.0743 44.306 30.6073L37.252 28.368C36.9552 28.2746 36.6959 28.0887 36.5121 27.8376C36.3283 27.5864 36.2296 27.283 36.2305 26.9718V23.9371C37.1558 23.039 37.8913 21.9642 38.3934 20.7764C38.8955 19.5887 39.154 18.3122 39.1536 17.0227V2.44617C39.1528 1.79762 38.8948 1.17585 38.4362 0.717267C37.9776 0.258681 37.3559 0.000728852 36.7073 0L26.2025 0C24.5132 0.00191888 22.8937 0.673836 21.6991 1.86834C20.5046 3.06285 19.8327 4.6824 19.8308 6.37169V17.0227C19.8303 18.3122 20.0888 19.5887 20.591 20.7764C21.0931 21.9642 21.8286 23.039 22.7539 23.9371V26.9718C22.7547 27.2831 22.656 27.5864 22.4722 27.8376C22.2884 28.0888 22.0291 28.2746 21.7322 28.368L14.6785 30.6073C13.194 31.0742 11.8976 32.0035 10.9786 33.2594C10.0597 34.5153 9.5662 36.032 9.57031 37.5882V44.1574H1.46484C1.07634 44.1574 0.703757 44.3117 0.429046 44.5865C0.154335 44.8612 3.10796e-06 45.2338 0 45.6223L0 48.909C0.00113556 49.8174 0.283325 50.7032 0.807855 51.4449C1.33238 52.1866 2.07356 52.7478 2.92969 53.0516V96.9727C2.93058 97.7753 3.24982 98.5448 3.81737 99.1123C4.38491 99.6799 5.15441 99.9991 5.95703 100H10.2539C10.5614 100 10.861 99.9032 11.1104 99.7235C11.3598 99.5437 11.5464 99.29 11.6436 98.9984L13.9055 92.2126C14.0025 91.9208 14.189 91.6669 14.4384 91.4871C14.6879 91.3073 14.9877 91.2107 15.2952 91.2109H52.0876C52.3951 91.2107 52.6949 91.3073 52.9444 91.4871C53.1938 91.6669 53.3803 91.9207 53.4773 92.2125L55.7392 98.9984C55.8365 99.29 56.023 99.5437 56.2724 99.7235C56.5218 99.9032 56.8215 100 57.1289 100H61.4258C62.2284 99.9991 62.9979 99.6799 63.5654 99.1123C64.133 98.5448 64.4522 97.7753 64.4531 96.9727V70.1067H75.0181L78.7229 98.9766C78.7682 99.3299 78.9407 99.6546 79.2081 99.8899C79.4756 100.125 79.8196 100.255 80.1758 100.255H86.8164C87.0242 100.255 87.2296 100.211 87.419 100.125C87.6083 100.04 87.7774 99.915 87.9148 99.7592C88.0523 99.6034 88.155 99.4201 88.2162 99.2216C88.2774 99.023 88.2957 98.8137 88.2698 98.6076L84.6879 70.1067H86.8164C90.3117 70.1028 93.6627 68.7125 96.1343 66.241C98.6058 63.7694 99.9961 60.4184 100 56.9231V47.3528C99.9971 45.0948 99.1889 42.9118 97.7207 41.1963C96.2525 39.4807 94.2206 38.3451 91.9901 37.9934ZM71.875 3.1847H80.7617C81.9268 3.186 83.0438 3.64942 83.8677 4.47327C84.6915 5.29712 85.1549 6.41413 85.1562 7.57923V8.88966L85.148 8.89502C84.0877 9.57777 82.8419 9.91519 81.582 9.86085C80.3221 9.8065 79.11 9.36307 78.1125 8.59156L71.9279 3.7981C71.9107 3.78478 71.8926 3.77365 71.875 3.76121V3.1847ZM71.875 7.4637L76.3177 10.9071C77.5556 11.8647 79.0211 12.4843 80.5705 12.7051C82.1199 12.9259 83.7001 12.7403 85.1562 12.1665V16.173C85.1549 17.3381 84.6915 18.4551 83.8677 19.2789C83.0438 20.1028 81.9268 20.5662 80.7617 20.5675H76.2695C75.1044 20.5662 73.9874 20.1028 73.1636 19.2789C72.3397 18.4551 71.8763 17.3381 71.875 16.173V7.4637ZM82.2266 23.3498V26.3568H75.7685C75.4462 26.3574 75.1242 26.3789 74.8047 26.4212V23.3498C75.2868 23.448 75.7775 23.4974 76.2695 23.4972H80.7617C81.2537 23.4974 81.7445 23.448 82.2266 23.3498ZM72.6596 30.575C73.0668 30.1652 73.5512 29.8403 74.0849 29.6191C74.6185 29.398 75.1908 29.2849 75.7685 29.2865H82.7127C84.3957 29.2884 86.0091 29.9578 87.1991 31.1478C88.3891 32.3378 89.0585 33.9512 89.0604 35.6341V54.7748C89.0591 55.9399 88.5957 57.0569 87.7718 57.8807C86.948 58.7046 85.831 59.168 84.6659 59.1693H64.4531V53.0516C65.3093 52.7478 66.0504 52.1866 66.575 51.4449C67.0995 50.7032 67.3817 49.8174 67.3828 48.909V46.312C67.6272 46.1468 67.8553 45.9586 68.0639 45.75L75.1641 38.6538C75.4387 38.3791 75.593 38.0066 75.5931 37.6182C75.5931 37.2298 75.4389 36.8573 75.1643 36.5826C74.8897 36.3079 74.5173 36.1534 74.1289 36.1533C73.7405 36.1531 73.3679 36.3072 73.0931 36.5816L70.7815 38.8919L67.6922 35.5471L72.6596 30.575ZM51.3032 40.8098H61.8272C62.0197 40.8098 62.2103 40.7719 62.3881 40.6982C62.5659 40.6245 62.7274 40.5165 62.8634 40.3803L65.6198 37.6214L68.7077 40.9646L65.9928 43.678C65.7146 43.9572 65.3455 44.1273 64.9526 44.1574H46.7143C47.0271 43.186 47.6398 42.3387 48.4643 41.7373C49.2888 41.1358 50.2826 40.8111 51.3032 40.8098V40.8098ZM22.7605 6.37169C22.7615 5.45913 23.1245 4.58425 23.7698 3.93897C24.415 3.2937 25.2899 2.93073 26.2025 2.92969H36.2239V10.2692C35.0004 10.6997 33.6856 10.8034 32.4098 10.57C31.6899 10.4117 30.9977 10.1471 30.3558 9.78489C29.5027 9.31318 28.5842 8.97086 27.6304 8.76914C26.0038 8.47386 24.329 8.59286 22.7605 9.11517V6.37169ZM22.7605 12.2245C24.3269 11.5843 25.7714 11.3887 27.0639 11.6435C27.7536 11.7956 28.4166 12.0499 29.0311 12.398C29.9088 12.882 30.8531 13.2339 31.8336 13.4424C33.2884 13.7249 34.7878 13.6816 36.2239 13.3157V17.0227C36.2239 18.8081 35.5147 20.5203 34.2522 21.7827C32.9898 23.0452 31.2775 23.7544 29.4922 23.7544C27.7068 23.7544 25.9946 23.0452 24.7322 21.7827C23.4697 20.5203 22.7605 18.8081 22.7605 17.0227V12.2245ZM34.0928 29.4905C31.1398 30.6697 27.8464 30.6681 24.8945 29.4862C25.4091 28.7488 25.6846 27.871 25.6836 26.9718V25.9003C26.8868 26.4174 28.1826 26.6841 29.4922 26.6841C30.8018 26.6841 32.0976 26.4174 33.3008 25.9003V26.9718C33.2998 27.8728 33.5763 28.7523 34.0928 29.4905V29.4905ZM12.5 37.5882C12.4975 36.6545 12.7936 35.7444 13.345 34.9909C13.8964 34.2374 14.6742 33.6798 15.5649 33.3997L22.0004 31.3566C24.29 32.6323 26.8672 33.3025 29.4882 33.3036C29.5975 33.3036 29.7081 33.3025 29.8189 33.3002C32.3299 33.245 34.7896 32.5779 36.9844 31.3568L43.4196 33.3997C44.3102 33.6798 45.088 34.2374 45.6394 34.9909C46.1908 35.7445 46.4868 36.6545 46.4844 37.5882V39.5675C45.0381 40.7166 44.0495 42.3442 43.6966 44.1574H40.625V40.8815C40.625 40.493 40.4707 40.1204 40.196 39.8457C39.9212 39.571 39.5487 39.4167 39.1602 39.4167C38.7717 39.4167 38.3991 39.571 38.1244 39.8457C37.8496 40.1204 37.6953 40.493 37.6953 40.8815V44.1574H21.2891V40.8815C21.2891 40.493 21.1347 40.1204 20.86 39.8457C20.5853 39.571 20.2127 39.4167 19.8242 39.4167C19.4357 39.4167 19.0631 39.571 18.7884 39.8457C18.5137 40.1204 18.3594 40.493 18.3594 40.8815V44.1574H12.5V37.5882ZM61.5234 96.9727C61.5234 96.9986 61.5131 97.0234 61.4948 97.0417C61.4765 97.06 61.4517 97.0703 61.4258 97.0703H58.1847L56.2567 91.286C55.9657 90.4106 55.4063 89.6491 54.6579 89.1097C53.9095 88.5703 53.0101 88.2804 52.0876 88.2812H15.2952C14.3727 88.2804 13.4733 88.5703 12.7249 89.1097C11.9765 89.6491 11.4171 90.4106 11.1261 91.2861L9.19809 97.0703H5.95703C5.93114 97.0703 5.90631 97.06 5.888 97.0417C5.86969 97.0234 5.85939 96.9986 5.85938 96.9727V53.3035H61.5234V96.9727ZM62.9883 50.3738H4.39453C4.00616 50.3734 3.63382 50.2189 3.3592 49.9443C3.08458 49.6697 2.93011 49.2974 2.92969 48.909V47.0871H44.891C44.9334 47.0908 44.9761 47.0936 45.0195 47.0936H64.4531V48.909C64.4527 49.2974 64.2982 49.6697 64.0236 49.9443C63.749 50.2189 63.3767 50.3734 62.9883 50.3738V50.3738ZM85.156 97.3253H81.4647L77.9718 70.1067H81.7352L85.156 97.3253ZM97.0703 56.9231C97.0672 59.6417 95.9859 62.248 94.0636 64.1703C92.1413 66.0926 89.535 67.1739 86.8164 67.177H64.4531V62.099H84.6659C86.6077 62.0968 88.4694 61.3244 89.8425 59.9514C91.2155 58.5783 91.9879 56.7166 91.9901 54.7748V40.9767C93.4326 41.3094 94.7199 42.1207 95.6424 43.2786C96.5649 44.4364 97.0682 45.8724 97.0703 47.3528V56.9231Z" fill="black"/>
</g>
<defs>
<clipPath id="clip0_6_50">
<rect width="100" height="100" fill="white"/>
</clipPath>
</defs>
</svg>
