<svg width="100" height="100" viewBox="0 0 100 100" fill="none" xmlns="http://www.w3.org/2000/svg">
<path d="M63.1641 47.1094C60.0391 51.9922 54.8437 57.1484 48.5156 56.1914C42.2656 55.2539 37.832 49.3945 35.1758 44.1406C34.7852 43.3789 33.8672 43.3008 33.1641 43.6133C32.6172 43.8672 31.9727 43.3594 31.582 42.9883C30.7812 42.2461 30.332 41.1914 30.0195 40.1758C29.6484 38.9453 29.1992 35.6445 30.9375 35.1172C31.7773 34.8633 32.0703 34.1211 31.9531 33.3203C31.9531 33.3203 31.9531 33.3203 31.9531 33.3008C31.8359 32.5 30.8398 32.0899 30.1562 32.2852C29.3164 32.5195 29.0234 33.3008 29.1406 34.082C29.1406 34.082 29.1406 34.082 29.1406 34.1016C29.4727 33.4961 29.8242 32.8906 30.1562 32.3047C26.4844 33.4375 26.3672 38.2227 27.2852 41.2695C28.2227 44.3359 31.1523 47.793 34.6484 46.1524C33.9844 45.9766 33.3203 45.8008 32.6367 45.625C35.7031 51.6992 40.918 58.0078 48.0273 59.0625C55.625 60.1953 61.875 54.5508 65.6836 48.5742C66.7187 46.9922 64.1797 45.5274 63.1641 47.1094ZM43.4375 72.5586C47.6367 74.1602 52.2852 74.0625 56.543 72.7344C58.3398 72.1875 57.5781 69.3555 55.7617 69.9023C51.9531 71.0742 47.9687 71.1523 44.2187 69.7266C42.4609 69.0625 41.6992 71.8945 43.4375 72.5586Z" fill="black"/>
<path d="M81.5039 97.4414C81.5039 92.6953 81.5039 87.9297 81.5039 83.1836C81.5039 81.2305 81.5039 79.2773 81.5039 77.3242C81.5039 73.1445 79.3555 69.3359 75.8594 67.0898C73.7109 65.7031 71.1523 65.3906 68.7109 64.9023C66.6016 64.4727 64.5117 64.0625 62.4023 63.6328C62.6953 63.8477 62.9883 64.082 63.2812 64.2969C62.6562 63.3789 62.0898 62.3633 61.3477 61.5234C60.2734 60.3125 57.9492 60.1563 57.4023 61.9336C56.9336 63.4766 56.4844 65.0391 56.0156 66.582C54.2773 72.4219 52.5391 78.2617 50.8008 84.1016C50.0586 86.582 49.3164 89.0625 48.5742 91.5625C49.5117 91.5625 50.4492 91.5625 51.4062 91.5625C48.6719 82.3242 45.9375 73.1055 43.2031 63.8672C42.9883 63.1641 42.793 62.4609 42.5781 61.7383C42.2461 60.5859 40.9766 60.5078 39.9805 60.6641C39.2578 60.7813 38.7305 61.4258 38.3203 61.9727C37.7734 62.7344 37.2461 63.5156 36.6992 64.2773C36.9922 64.0625 37.2852 63.8281 37.5781 63.6133C35.2344 64.082 32.9102 64.5508 30.5664 65.0195C29.707 65.1953 28.8281 65.3711 27.9687 65.5469C25.7812 65.9766 23.7891 67.0898 22.168 68.5938C19.6094 70.957 18.4766 74.3359 18.4766 77.7539C18.4766 80.1172 18.4766 82.4609 18.4766 84.8242C18.4766 89.0234 18.4766 93.2226 18.4766 97.4219C18.4766 99.3164 21.4062 99.3164 21.4062 97.4219C21.4062 92.6758 21.4062 87.9101 21.4062 83.1641C21.4062 81.2109 21.4062 79.2578 21.4062 77.3047C21.4062 73.4766 23.7891 70 27.4219 68.7109C28.457 68.3398 29.6094 68.1836 30.7031 67.9687C32.3242 67.6367 33.9648 67.3242 35.5859 66.9922C36.5039 66.8164 37.4414 66.6211 38.3594 66.4453C39.082 66.3086 39.6094 65.2344 40 64.6875C40.2344 64.3555 40.4687 64.0039 40.7031 63.6719C40.7617 63.5742 40.8398 63.4766 40.8984 63.3984C41.0937 63.125 40.6641 63.5352 40.7617 63.5547C40.4297 63.2227 40.0781 62.8711 39.7461 62.5391C42.4805 71.7773 45.2148 80.9961 47.9492 90.2344C48.1641 90.9375 48.3594 91.6406 48.5742 92.3633C48.9844 93.7695 50.9766 93.75 51.4062 92.3633C54.1602 83.125 56.9141 73.9062 59.6484 64.668C59.8633 63.9648 60.0781 63.2617 60.2734 62.5391C59.9414 62.8711 59.5898 63.2227 59.2578 63.5547C59.2187 63.5742 58.9062 63.1055 59.2383 63.5742C59.4141 63.8477 59.6094 64.1211 59.7852 64.375C60.0977 64.8438 60.4297 65.3125 60.7422 65.7617C61.3281 66.6211 62.6367 66.6406 63.5742 66.8164C66.0937 67.3242 68.6328 67.832 71.1523 68.3398C75.0976 69.1211 78.1641 72.3437 78.5352 76.3867C78.6914 78.1055 78.5742 79.8828 78.5742 81.6016C78.5742 86.875 78.5742 92.1289 78.5742 97.4023C78.5742 99.3359 81.5039 99.3359 81.5039 97.4414Z" fill="black"/>
<path d="M39.9609 80.1367C39.9023 82.1094 38.3984 83.6133 36.4258 83.6719C34.4531 83.7305 32.9492 82.0313 32.8906 80.1367C32.832 78.1641 34.5313 76.6602 36.4258 76.6016C38.418 76.5625 39.9219 78.2617 39.9609 80.1367C40.0195 82.0313 42.9492 82.0313 42.8906 80.1367C42.793 76.5625 40.0195 73.7695 36.4258 73.6719C32.8516 73.5742 30.0586 76.6992 29.9609 80.1367C29.8633 83.7109 32.9883 86.5039 36.4258 86.6016C40 86.6992 42.793 83.5742 42.8906 80.1367C42.9492 78.2422 40.0195 78.2617 39.9609 80.1367ZM62.8125 89.2774C61.4062 89.2188 61.3477 87.9883 61.3477 86.9141C61.3477 85.4492 61.3477 83.9844 61.3477 82.5195C61.3477 81.582 61.3477 80.6445 61.3477 79.707C61.3477 77.7149 62.6172 75.8984 64.4727 75.1953C66.4648 74.4531 68.5352 75.1367 69.9023 76.6797C70.8203 77.7149 70.9766 79.043 70.9766 80.3516C70.9766 82.832 70.9766 85.3125 70.9766 87.7735C70.9766 88.6133 70.332 89.2188 69.5117 89.2578C67.6367 89.336 67.6172 92.2656 69.5117 92.1875C71.8945 92.0703 73.9062 90.2539 73.9062 87.793C73.9062 86.7969 73.9062 85.8008 73.9062 84.8047C73.9062 81.9531 74.2969 78.8086 73.0469 76.1719C70.957 71.7578 64.9219 70.7227 61.2695 73.7305C59.4727 75.2149 58.4766 77.3828 58.4375 79.707C58.418 80.6445 58.4375 81.582 58.4375 82.5195C58.4375 84.1992 58.4375 85.8594 58.4375 87.5391C58.4375 90.1172 60.2344 92.0899 62.832 92.207C64.707 92.2852 64.707 89.3555 62.8125 89.2774ZM42.8906 23.7695C43.5352 23.9453 44.1797 24.1992 44.8047 24.4336C44.9609 24.4922 45.0977 24.5508 45.2539 24.6094C45.5859 24.7461 45.0195 24.5117 45.4687 24.707C45.8594 24.8828 46.25 25.0586 46.6406 25.2539C47.5195 25.6836 48.3984 26.1523 49.2383 26.6602C53.7305 29.3164 57.5195 33.0859 60.0195 37.832C63.1836 43.8477 63.6328 50.8984 62.6172 57.5195C62.3828 58.9844 63.8867 59.9414 65.0586 58.9453C67.6758 56.7383 69.7656 53.6328 71.3086 50.6055C74.9023 43.5742 75.3516 35.5469 73.0469 28.0469C70.3711 19.375 64.7461 11.1133 55.9766 7.89062C49.8828 5.64453 42.5391 6.25 36.9922 9.66797C34.2773 11.3281 31.7578 13.9648 31.2305 17.2266C31.4453 16.9336 31.6797 16.6406 31.8945 16.3477C30.5078 17.2852 29.668 18.8867 29.0625 20.3906C27.3633 24.6875 28.0664 29.7852 29.1211 34.1406C29.2969 34.9023 30.1758 35.3906 30.918 35.1563C36.7773 33.3789 41.6797 28.3398 44.5312 23.125C45.4492 21.4648 42.9102 19.9805 41.9922 21.6406C40.1172 25.0586 37.5586 28.0078 34.3164 30.1758C33.3203 30.8398 32.2852 31.4258 31.1914 31.9141C31.1133 31.9531 31.0547 31.9727 30.9766 32.0117C30.625 32.168 31.2695 31.8945 30.957 32.0313C30.8008 32.0898 30.6641 32.1484 30.5078 32.207C30.3906 32.2461 30.2539 32.3047 30.1367 32.3438C30.7422 32.6758 31.3477 33.0273 31.9336 33.3594C31.0156 29.5117 30.4297 25.2734 31.7773 21.4453C31.9336 21.0352 32.0313 20.7813 32.3438 20.2344C32.4414 20.0391 32.5586 19.8633 32.6758 19.6875C32.7344 19.6094 32.793 19.5313 32.832 19.4531C32.9883 19.2383 32.6172 19.7266 32.8711 19.4141C33.0273 19.2188 33.2031 19.043 33.3789 18.8672C33.7305 18.5352 33.1641 19.0039 33.3594 18.8672C34.043 18.3984 34.043 17.6953 34.2773 16.9727C34.3164 16.8555 34.3555 16.7188 34.4141 16.6016C34.5703 16.1914 34.2969 16.8555 34.4727 16.4648C34.6094 16.1719 34.7461 15.8984 34.9219 15.625C35.4883 14.668 36.2305 13.9062 37.207 13.0859C39.1992 11.4453 42.0117 10.3711 44.707 9.84375C51.6797 8.49609 58.7305 11.2305 63.4766 16.4453C66.7969 20.1172 69.1211 24.9414 70.4883 29.668C71.6016 33.5547 71.9336 37.6758 71.2695 41.6797C70.5664 45.7813 68.8867 49.5899 66.4844 52.9688C65.8203 53.8867 65.0586 54.8438 64.1016 55.8398C63.75 56.2109 63.3984 56.5625 63.0078 56.8945C63.8281 57.3633 64.6484 57.8516 65.4492 58.3203C66.6602 50.4688 66.0156 42.3828 62.0117 35.3906C59.2969 30.6445 55.1953 26.7969 50.5078 24.0234C48.3789 22.7734 46.0547 21.6211 43.6523 20.9766C41.8555 20.4492 41.0742 23.2617 42.8906 23.7695Z" fill="black"/>
<path d="M67.6367 73.418C67.6367 70.8984 67.6367 68.3984 67.6367 65.8789C67.6367 65.1953 67.1875 64.668 66.5625 64.4727C66.7773 64.5898 66.9922 64.7266 67.207 64.8437C65.8789 63.5156 63.7891 65.5859 65.1367 66.9141C65.332 67.1094 65.5273 67.207 65.7812 67.2852C65.4297 66.8164 65.0586 66.3477 64.707 65.8789C64.707 68.3984 64.707 70.8984 64.707 73.418C64.707 75.3125 67.6367 75.3125 67.6367 73.418ZM42.4023 62.0898C42.4023 59.4336 42.4023 56.7773 42.4023 54.1016C42.4023 52.207 39.4727 52.207 39.4727 54.1016C39.4727 56.7578 39.4727 59.4141 39.4727 62.0898C39.4727 63.9844 42.4023 63.9844 42.4023 62.0898ZM60.5273 62.1094C60.5273 59.4531 60.5273 56.7773 60.5273 54.1211C60.5273 52.2266 57.5977 52.2266 57.5977 54.1211C57.5977 56.7773 57.5977 59.4531 57.5977 62.1094C57.5977 63.9844 60.5273 63.9844 60.5273 62.1094ZM37.9102 75.1562C37.9102 71.8945 37.9102 68.6328 37.9102 65.3711C37.9102 63.4766 34.9805 63.4766 34.9805 65.3711C34.9805 68.6328 34.9805 71.8945 34.9805 75.1562C34.9805 77.0312 37.9102 77.0312 37.9102 75.1562Z" fill="black"/>
<path d="M38.125 62.3437C37.5586 62.9102 37.5586 63.8477 38.125 64.4141C38.6914 64.9805 39.6289 64.9805 40.1953 64.4141C40.7617 63.8477 40.7617 62.9102 40.1953 62.3437C39.6289 61.7773 38.6914 61.7773 38.125 62.3437ZM80.039 95.9766C72.0312 95.9766 64.0234 95.9766 55.9961 95.9766C44.9609 95.9766 33.9258 95.9766 22.8906 95.9766C21.9141 95.9766 20.918 95.9766 19.9414 95.9766C18.0469 95.9766 18.0469 98.9062 19.9414 98.9062C27.9492 98.9062 35.957 98.9062 43.9844 98.9062C55.0195 98.9062 66.0547 98.9062 77.0898 98.9062C78.0664 98.9062 79.0625 98.9062 80.039 98.9062C81.9336 98.9062 81.9336 95.9766 80.039 95.9766Z" fill="black"/>
</svg>
