<svg width="25" height="25" viewBox="0 0 25 25" fill="none" xmlns="http://www.w3.org/2000/svg">
<path d="M21.4876 11.6414C21.491 12.9613 21.1827 14.2633 20.5876 15.4414C19.882 16.8532 18.7973 18.0406 17.455 18.8707C16.1127 19.7008 14.5658 20.1408 12.9876 20.1414C11.6677 20.1448 10.3657 19.8365 9.18759 19.2414L3.48759 21.1414L5.38759 15.4414C4.79253 14.2633 4.48415 12.9613 4.48759 11.6414C4.48821 10.0632 4.92821 8.51626 5.75831 7.17396C6.58842 5.83166 7.77585 4.74697 9.18759 4.04141C10.3657 3.44634 11.6677 3.13797 12.9876 3.14141H13.4876C15.5719 3.2564 17.5406 4.13617 19.0167 5.61227C20.4928 7.08836 21.3726 9.05706 21.4876 11.1414V11.6414Z" stroke="black" stroke-width="2" stroke-linecap="round" stroke-linejoin="round"/>
</svg>
