<svg width="25" height="25" viewBox="0 0 25 25" fill="none" xmlns="http://www.w3.org/2000/svg">
<path d="M22.4876 17.0614V20.0614C22.4887 20.3399 22.4317 20.6156 22.3201 20.8708C22.2085 21.1259 22.0449 21.355 21.8397 21.5433C21.6344 21.7315 21.3922 21.8749 21.1283 21.9641C20.8645 22.0533 20.585 22.0865 20.3076 22.0614C17.2304 21.727 14.2746 20.6756 11.6776 18.9914C9.26142 17.4561 7.21293 15.4076 5.67759 12.9914C3.98757 10.3826 2.93583 7.4124 2.60759 4.32141C2.5826 4.04487 2.61546 3.76617 2.70409 3.50303C2.79271 3.2399 2.93516 2.9981 3.12235 2.79303C3.30955 2.58796 3.53739 2.42412 3.79138 2.31193C4.04537 2.19974 4.31993 2.14167 4.59759 2.14141H7.59759C8.0829 2.13663 8.55338 2.30849 8.92135 2.62494C9.28932 2.94139 9.52967 3.38085 9.59759 3.86141C9.72421 4.82147 9.95904 5.76413 10.2976 6.67141C10.4321 7.02933 10.4613 7.41832 10.3815 7.79229C10.3017 8.16625 10.1165 8.50952 9.84759 8.78141L8.57759 10.0514C10.0011 12.555 12.074 14.6279 14.5776 16.0514L15.8476 14.7814C16.1195 14.5125 16.4627 14.3273 16.8367 14.2475C17.2107 14.1677 17.5997 14.1969 17.9576 14.3314C18.8649 14.67 19.8075 14.9048 20.7676 15.0314C21.2534 15.0999 21.697 15.3446 22.0141 15.7189C22.3313 16.0932 22.4998 16.571 22.4876 17.0614Z" stroke="black" stroke-width="2" stroke-linecap="round" stroke-linejoin="round"/>
</svg>
