<svg width="93" height="93" viewBox="0 0 93 93" fill="none" xmlns="http://www.w3.org/2000/svg">
<path d="M56.9375 23.6609H53.8125V26.8844H56.9375V23.6609Z" fill="black"/>
<path d="M44.4375 17.3125V24.689C44.4354 25.5289 44.6 26.3607 44.9219 27.1364C45.2437 27.9121 45.7164 28.6162 46.3125 29.2078L46.6078 29.5015C46.9113 29.8046 47.1519 30.1646 47.3158 30.5609C47.4796 30.9572 47.5634 31.3821 47.5625 31.8109V35.3687C46.6156 35.913 45.8285 36.6967 45.28 37.6412C44.7315 38.5857 44.441 39.6578 44.4375 40.75V80.5937C44.4375 82.0441 45.0137 83.4351 46.0393 84.4607C47.0649 85.4863 48.4558 86.0625 49.9063 86.0625H51.4688C52.9192 86.0625 54.3102 85.4863 55.3357 84.4607C56.3613 83.4351 56.9375 82.0441 56.9375 80.5937V30.0078H53.8125V34.5H50.6875V31.8109C50.6892 30.9709 50.5244 30.1389 50.2026 29.363C49.8808 28.5871 49.4083 27.8828 48.8125 27.2906L48.5156 26.9953C48.2123 26.6929 47.9719 26.3334 47.8083 25.9375C47.6447 25.5417 47.5612 25.1174 47.5625 24.689V17.3125C47.5645 15.5121 48.1872 13.7674 49.3258 12.3727C50.4643 10.978 52.0489 10.0186 53.8125 9.65623V20.5344H56.9375V6.37498H55.375C52.4753 6.3787 49.6955 7.53224 47.6451 9.58261C45.5948 11.633 44.4412 14.4128 44.4375 17.3125V17.3125ZM53.8125 80.5937C53.8125 81.2153 53.5656 81.8115 53.126 82.251C52.6865 82.6906 52.0904 82.9375 51.4688 82.9375H49.9063C49.2847 82.9375 48.6885 82.6906 48.249 82.251C47.8094 81.8115 47.5625 81.2153 47.5625 80.5937V45.4375H53.8125V80.5937ZM53.8125 37.625V42.3125H47.5625V40.75C47.5625 39.9212 47.8917 39.1263 48.4778 38.5403C49.0638 37.9542 49.8587 37.625 50.6875 37.625H53.8125ZM92.9141 68.739C92.7304 65.5255 91.4945 62.4617 89.3969 60.0203C88.6124 59.1443 87.7558 58.3357 86.8359 57.6031C86.0577 57.0262 85.3853 56.3189 84.8484 55.5125C83.6299 53.4734 83.1654 51.0714 83.5359 48.725C83.5413 48.5938 83.5292 48.4624 83.5 48.3344V39.5594L83.5563 39.4828L78.95 7.17967C78.8905 6.77109 78.6858 6.39761 78.3735 6.12752C78.0612 5.85744 77.6621 5.7088 77.2492 5.7088C76.8363 5.7088 76.4372 5.85744 76.1249 6.12752C75.8126 6.39761 75.608 6.77109 75.5484 7.17967L71.0469 38.7594C71.0451 38.8513 71.0503 38.9432 71.0625 39.0344C71.031 39.1361 71.0101 39.2408 71 39.3469V48.4094C71 48.4562 71.0234 48.4953 71.0266 48.5422C71.0162 48.6036 71.0105 48.6658 71.0094 48.7281C71.3794 51.075 70.915 53.4773 69.6969 55.5172C69.1622 56.3209 68.493 57.0266 67.7188 57.6031C66.7984 58.3356 65.9412 59.1442 65.1562 60.0203C63.053 62.4607 61.812 65.5259 61.625 68.7422C61.4287 71.6982 62.0134 74.6538 63.3203 77.3125C64.8135 80.6526 67.1341 83.5567 70.0625 85.75C70.394 85.9986 70.8107 86.1054 71.221 86.0468C71.6312 85.9882 72.0014 85.769 72.25 85.4375C72.4986 85.106 72.6054 84.6892 72.5468 84.279C72.4882 83.8688 72.269 83.4986 71.9375 83.25C69.4375 81.3824 67.4543 78.9088 66.175 76.0625C65.088 73.8765 64.5965 71.4427 64.75 69.0062C64.879 66.4682 65.8393 64.043 67.4828 62.1047C68.1612 61.3466 68.9035 60.6482 69.7016 60.0172C70.7214 59.2443 71.6031 58.3045 72.3094 57.2375C73.6473 55.1134 74.3093 52.6333 74.2078 50.125H80.3375C80.2401 52.6343 80.907 55.114 82.25 57.2359C82.9563 58.3033 83.838 59.2437 84.8578 60.0172C85.6558 60.6482 86.3981 61.3466 87.0766 62.1047C88.721 64.0431 89.6814 66.4691 89.8094 69.0078C89.9584 71.4431 89.4631 73.8748 88.3734 76.0578C87.0948 78.904 85.1121 81.3777 82.6125 83.2453C82.4483 83.3684 82.3101 83.5227 82.2055 83.6992C82.101 83.8758 82.0322 84.0712 82.0032 84.2743C81.9742 84.4775 81.9855 84.6843 82.0364 84.8831C82.0873 85.0819 82.1769 85.2686 82.3 85.4328C82.4231 85.5969 82.5774 85.7352 82.7539 85.8398C82.9305 85.9443 83.1259 86.0131 83.329 86.0421C83.5322 86.0711 83.739 86.0598 83.9378 86.0089C84.1366 85.958 84.3233 85.8684 84.4875 85.7453C87.4142 83.5514 89.7331 80.6474 91.225 77.3078C92.5292 74.6489 93.1117 71.694 92.9141 68.739V68.739ZM74.125 40.75H80.375V47H74.125V40.75ZM77.25 17.3937L80.1359 37.625H74.3656L77.25 17.3937Z" fill="black"/>
<path d="M78.8125 42.3125H75.6875V45.4375H78.8125V42.3125Z" fill="black"/>
<path d="M30.3406 71.0375C28.6771 71.3775 27.1719 72.2561 26.0578 73.5375L21.625 51.4188L30.2813 8.22657C30.3222 8.02514 30.323 7.81761 30.2836 7.61587C30.2442 7.41413 30.1654 7.22215 30.0517 7.05092C29.9379 6.87969 29.7916 6.73258 29.6209 6.61802C29.4502 6.50346 29.2586 6.4237 29.0571 6.38331C28.8555 6.34292 28.648 6.34269 28.4464 6.38264C28.2448 6.42259 28.053 6.50193 27.8821 6.61611C27.7112 6.7303 27.5644 6.87709 27.4504 7.04807C27.3363 7.21905 27.257 7.41086 27.2172 7.61251L20.0297 43.4656L12.8422 7.61251C12.7598 7.20714 12.52 6.85098 12.1754 6.62213C11.8308 6.39328 11.4096 6.31041 11.004 6.3917C10.5984 6.47298 10.2416 6.71179 10.0118 7.05575C9.78197 7.39971 9.69795 7.82076 9.77812 8.22657L18.4313 51.4188L14.0016 73.5281C13.0404 72.4423 11.7952 71.6463 10.4062 71.2299C9.01715 70.8134 7.53944 70.793 6.13942 71.1709C4.7394 71.5488 3.47268 72.31 2.48186 73.3688C1.49105 74.4277 0.815489 75.7421 0.531249 77.1641C0.139961 79.1894 0.565521 81.2872 1.71509 82.9999C2.86465 84.7127 4.64492 85.9012 6.66749 86.3064C8.69006 86.7115 10.7908 86.3003 12.5113 85.1625C14.2319 84.0247 15.4326 82.2526 15.8516 80.2328L20.0297 59.3734L24.2094 80.2328C24.5666 82.0013 25.5237 83.5921 26.9189 84.7361C28.314 85.8801 30.0614 86.507 31.8656 86.5109C32.381 86.5104 32.8951 86.4581 33.4 86.3547C34.4332 86.1826 35.4212 85.8045 36.3054 85.2429C37.1895 84.6813 37.9517 83.9477 38.5466 83.0856C39.1415 82.2235 39.557 81.2506 39.7684 80.2247C39.9797 79.1989 39.9826 78.1409 39.7769 77.1139C39.5712 76.0869 39.161 75.1117 38.5709 74.2464C37.9807 73.3811 37.2225 72.6432 36.3415 72.0768C35.4604 71.5104 34.4745 71.1269 33.4422 70.9491C32.41 70.7714 31.3526 70.803 30.3328 71.0422L30.3406 71.0375ZM10.7953 82.6C10.2843 82.9438 9.71007 83.1824 9.10597 83.302C8.50186 83.4217 7.87998 83.4199 7.27656 83.2969C6.36744 83.1151 5.53265 82.6677 4.87777 82.0115C4.22288 81.3552 3.77732 80.5194 3.59743 79.6099C3.41753 78.7004 3.51139 77.758 3.86712 76.9018C4.22285 76.0457 4.82449 75.3142 5.59594 74.8C6.36739 74.2858 7.274 74.0119 8.20113 74.0129C9.12826 74.014 10.0343 74.2899 10.8045 74.8059C11.5748 75.3218 12.1748 76.0546 12.5286 76.9116C12.8824 77.7686 12.9741 78.7112 12.7922 79.6203C12.673 80.2242 12.4351 80.7984 12.0923 81.3096C11.7496 81.8208 11.3087 82.2589 10.7953 82.5984V82.6ZM32.7953 83.2969C31.8862 83.4794 30.9434 83.3883 30.0862 83.035C29.2289 82.6816 28.4957 82.082 27.9792 81.3119C27.4628 80.5418 27.1864 79.6358 27.1849 78.7086C27.1834 77.7813 27.457 76.8745 27.971 76.1028C28.485 75.331 29.2163 74.7291 30.0724 74.373C30.9286 74.017 31.8711 73.9228 32.7807 74.1025C33.6904 74.2822 34.5263 74.7276 35.1828 75.3824C35.8393 76.0372 36.2868 76.8721 36.4687 77.7813C36.7087 78.9992 36.4571 80.2626 35.7689 81.2957C35.0807 82.3287 34.0117 83.0476 32.7953 83.2953V83.2969Z" fill="black"/>
</svg>
