<svg width="28" height="28" viewBox="0 0 28 28" fill="none" xmlns="http://www.w3.org/2000/svg">
<path d="M5 7.5C4.7 7.5 4.5 7.3 4.5 7V5C4.5 4.7 4.7 4.5 5 4.5C5.3 4.5 5.5 4.7 5.5 5V7C5.5 7.3 5.3 7.5 5 7.5ZM5 15.5C4.7 15.5 4.5 15.3 4.5 15V13C4.5 12.7 4.7 12.5 5 12.5C5.3 12.5 5.5 12.7 5.5 13V15C5.5 15.3 5.3 15.5 5 15.5ZM5 23.5C4.7 23.5 4.5 23.3 4.5 23V21C4.5 20.7 4.7 20.5 5 20.5C5.3 20.5 5.5 20.7 5.5 21V23C5.5 23.3 5.3 23.5 5 23.5ZM5 11.5C4.7 11.5 4.5 11.3 4.5 11V9C4.5 8.7 4.7 8.5 5 8.5C5.3 8.5 5.5 8.7 5.5 9V11C5.5 11.3 5.3 11.5 5 11.5ZM5 19.5C4.7 19.5 4.5 19.3 4.5 19V17C4.5 16.7 4.7 16.5 5 16.5C5.3 16.5 5.5 16.7 5.5 17V19C5.5 19.3 5.3 19.5 5 19.5Z" fill="#4F5266"/>
<path d="M22 27.5H6C5.2 27.5 4.5 26.8 4.5 26V25C4.5 24.7 4.7 24.5 5 24.5C5.3 24.5 5.5 24.7 5.5 25V26C5.5 26.3 5.7 26.5 6 26.5H22C23.4 26.5 24.5 25.4 24.5 24V4C24.5 2.6 23.4 1.5 22 1.5H6C5.7 1.5 5.5 1.7 5.5 2V3C5.5 3.3 5.3 3.5 5 3.5C4.7 3.5 4.5 3.3 4.5 3V2C4.5 1.2 5.2 0.5 6 0.5H22C23.9 0.5 25.5 2.1 25.5 4V24C25.5 25.9 23.9 27.5 22 27.5Z" fill="#4F5266"/>
<path d="M6 5.5H4C3.2 5.5 2.5 4.8 2.5 4C2.5 3.2 3.2 2.5 4 2.5H6C6.8 2.5 7.5 3.2 7.5 4C7.5 4.8 6.8 5.5 6 5.5ZM4 3.5C3.7 3.5 3.5 3.7 3.5 4C3.5 4.3 3.7 4.5 4 4.5H6C6.3 4.5 6.5 4.3 6.5 4C6.5 3.7 6.3 3.5 6 3.5H4ZM6 9.5H4C3.2 9.5 2.5 8.8 2.5 8C2.5 7.2 3.2 6.5 4 6.5H6C6.8 6.5 7.5 7.2 7.5 8C7.5 8.8 6.8 9.5 6 9.5ZM4 7.5C3.7 7.5 3.5 7.7 3.5 8C3.5 8.3 3.7 8.5 4 8.5H6C6.3 8.5 6.5 8.3 6.5 8C6.5 7.7 6.3 7.5 6 7.5H4ZM6 13.5H4C3.2 13.5 2.5 12.8 2.5 12C2.5 11.2 3.2 10.5 4 10.5H6C6.8 10.5 7.5 11.2 7.5 12C7.5 12.8 6.8 13.5 6 13.5ZM4 11.5C3.7 11.5 3.5 11.7 3.5 12C3.5 12.3 3.7 12.5 4 12.5H6C6.3 12.5 6.5 12.3 6.5 12C6.5 11.7 6.3 11.5 6 11.5H4ZM6 17.5H4C3.2 17.5 2.5 16.8 2.5 16C2.5 15.2 3.2 14.5 4 14.5H6C6.8 14.5 7.5 15.2 7.5 16C7.5 16.8 6.8 17.5 6 17.5ZM4 15.5C3.7 15.5 3.5 15.7 3.5 16C3.5 16.3 3.7 16.5 4 16.5H6C6.3 16.5 6.5 16.3 6.5 16C6.5 15.7 6.3 15.5 6 15.5H4ZM6 21.5H4C3.2 21.5 2.5 20.8 2.5 20C2.5 19.2 3.2 18.5 4 18.5H6C6.8 18.5 7.5 19.2 7.5 20C7.5 20.8 6.8 21.5 6 21.5ZM4 19.5C3.7 19.5 3.5 19.7 3.5 20C3.5 20.3 3.7 20.5 4 20.5H6C6.3 20.5 6.5 20.3 6.5 20C6.5 19.7 6.3 19.5 6 19.5H4ZM6 25.5H4C3.2 25.5 2.5 24.8 2.5 24C2.5 23.2 3.2 22.5 4 22.5H6C6.8 22.5 7.5 23.2 7.5 24C7.5 24.8 6.8 25.5 6 25.5ZM4 23.5C3.7 23.5 3.5 23.7 3.5 24C3.5 24.3 3.7 24.5 4 24.5H6C6.3 24.5 6.5 24.3 6.5 24C6.5 23.7 6.3 23.5 6 23.5H4ZM15.5 19.5C13.8 19.5 12.5 18.2 12.5 16.5C12.5 14.8 13.8 13.5 15.5 13.5C16.1 13.5 16.8 13.7 17.3 14.1C17.4 14.2 17.5 14.3 17.5 14.5V18.5C17.5 18.7 17.4 18.8 17.3 18.9C16.8 19.3 16.1 19.5 15.5 19.5ZM15.5 14.5C14.4 14.5 13.5 15.4 13.5 16.5C13.5 17.6 14.4 18.5 15.5 18.5C15.9 18.5 16.2 18.4 16.5 18.2V14.8C16.2 14.6 15.9 14.5 15.5 14.5Z" fill="#4F5266"/>
<path d="M15 21.5C12.2 21.5 10 19.3 10 16.5C10 13.7 12.2 11.5 15 11.5C17.8 11.5 20 13.7 20 16.5C20 17.5 19.7 18.5 19.2 19.3C19.1 19.4 19 19.5 18.8 19.5H17C16.7 19.5 16.5 19.3 16.5 19V14C16.5 13.7 16.7 13.5 17 13.5C17.3 13.5 17.5 13.7 17.5 14V18.5H18.5C18.9 17.9 19 17.2 19 16.5C19 14.3 17.2 12.5 15 12.5C12.8 12.5 11 14.3 11 16.5C11 18.7 12.8 20.5 15 20.5C15.6 20.5 16.2 20.4 16.8 20.1C17 20 17.3 20.1 17.5 20.3C17.6 20.5 17.5 20.8 17.3 21C16.5 21.3 15.8 21.5 15 21.5Z" fill="#4F5266"/>
</svg>
