<svg width="1200" height="900" viewBox="0 0 1200 900" fill="none" xmlns="http://www.w3.org/2000/svg">
<path d="M291.68 735.86C267.22 717.06 159.35 629.5 148.21 502.8C132.58 325 320 214 371.43 183.56C489.3 113.74 772.65 8.43001 952.3 165.74C1096.18 291.74 1084.87 523.48 995.91 656.06C849.32 874.54 485.7 885 291.68 735.86Z" fill="#FFF3F7"/>
<path d="M971.9 353.5H911.01C909.905 353.5 909.01 354.395 909.01 355.5V380.43C909.01 381.535 909.905 382.43 911.01 382.43H971.9C973.005 382.43 973.9 381.535 973.9 380.43V355.5C973.9 354.395 973.005 353.5 971.9 353.5Z" fill="#FC7E85"/>
<path d="M971.9 411.26H911.01C909.905 411.26 909.01 412.155 909.01 413.26V438.19C909.01 439.295 909.905 440.19 911.01 440.19H971.9C973.005 440.19 973.9 439.295 973.9 438.19V413.26C973.9 412.155 973.005 411.26 971.9 411.26Z" fill="#FC7E85"/>
<path d="M1004.35 382.43H943.46C942.355 382.43 941.46 383.325 941.46 384.43V409.36C941.46 410.465 942.355 411.36 943.46 411.36H1004.35C1005.45 411.36 1006.35 410.465 1006.35 409.36V384.43C1006.35 383.325 1005.45 382.43 1004.35 382.43Z" stroke="#FC7E85" stroke-width="2" stroke-miterlimit="10"/>
<path d="M939.46 382.43H878.57C877.465 382.43 876.57 383.325 876.57 384.43V409.36C876.57 410.465 877.465 411.36 878.57 411.36H939.46C940.565 411.36 941.46 410.465 941.46 409.36V384.43C941.46 383.325 940.565 382.43 939.46 382.43Z" stroke="#FC7E85" stroke-width="2" stroke-miterlimit="10"/>
<path d="M260.12 496.49H199.23C198.125 496.49 197.23 497.385 197.23 498.49V523.42C197.23 524.525 198.125 525.42 199.23 525.42H260.12C261.225 525.42 262.12 524.525 262.12 523.42V498.49C262.12 497.385 261.225 496.49 260.12 496.49Z" stroke="#FC7E85" stroke-width="2" stroke-miterlimit="10"/>
<path d="M292.57 554.25H231.68C230.575 554.25 229.68 555.145 229.68 556.25V581.18C229.68 582.285 230.575 583.18 231.68 583.18H292.57C293.675 583.18 294.57 582.285 294.57 581.18V556.25C294.57 555.145 293.675 554.25 292.57 554.25Z" stroke="#FC7E85" stroke-width="2" stroke-miterlimit="10"/>
<path d="M306.05 525.42H245.16C244.055 525.42 243.16 526.315 243.16 527.42V552.35C243.16 553.455 244.055 554.35 245.16 554.35H306.05C307.155 554.35 308.05 553.455 308.05 552.35V527.42C308.05 526.315 307.155 525.42 306.05 525.42Z" stroke="#FC7E85" stroke-width="2" stroke-miterlimit="10"/>
<path d="M241.16 525.42H180.27C179.165 525.42 178.27 526.315 178.27 527.42V552.35C178.27 553.455 179.165 554.35 180.27 554.35H241.16C242.265 554.35 243.16 553.455 243.16 552.35V527.42C243.16 526.315 242.265 525.42 241.16 525.42Z" fill="#FC7E85"/>
<path d="M637.52 111.06H576.63C575.525 111.06 574.63 111.955 574.63 113.06V137.99C574.63 139.095 575.525 139.99 576.63 139.99H637.52C638.625 139.99 639.52 139.095 639.52 137.99V113.06C639.52 111.955 638.625 111.06 637.52 111.06Z" stroke="#FC7E85" stroke-width="2" stroke-miterlimit="10"/>
<path d="M659.44 168.92H598.55C597.445 168.92 596.55 169.815 596.55 170.92V195.85C596.55 196.955 597.445 197.85 598.55 197.85H659.44C660.545 197.85 661.44 196.955 661.44 195.85V170.92C661.44 169.815 660.545 168.92 659.44 168.92Z" stroke="#FC7E85" stroke-width="2" stroke-miterlimit="10"/>
<path d="M683.45 139.99H622.56C621.455 139.99 620.56 140.885 620.56 141.99V166.92C620.56 168.025 621.455 168.92 622.56 168.92H683.45C684.555 168.92 685.45 168.025 685.45 166.92V141.99C685.45 140.885 684.555 139.99 683.45 139.99Z" fill="#FC7E85"/>
<path d="M618.56 139.99H557.67C556.565 139.99 555.67 140.885 555.67 141.99V166.92C555.67 168.025 556.565 168.92 557.67 168.92H618.56C619.665 168.92 620.56 168.025 620.56 166.92V141.99C620.56 140.885 619.665 139.99 618.56 139.99Z" stroke="#FC7E85" stroke-width="2" stroke-miterlimit="10"/>
<path d="M576.26 822.73C590.26 824.73 603.89 820.05 608.89 815.95C613.89 811.85 622 813.47 622 813.47L621.75 823.22L636.41 822.8C636.41 822.8 637.14 813.13 637.79 804.42C638.12 800.07 636.7 797.64 636.14 793.42C635.58 789.2 632.56 782.42 632.56 782.42C624.67 782.68 604.31 783.87 600.56 779.35C599.12 782.266 597.196 784.917 594.87 787.19C594.11 787.96 593.31 788.72 592.49 789.46C591.67 790.2 591.08 790.62 590.36 791.19C589.44 791.92 588.5 792.65 587.5 793.35C577.5 800.42 565.05 805.82 558.16 810.85C547.41 818.82 562.26 820.72 576.26 822.73ZM715.82 815.4C728.76 809.68 737.82 798.47 739.88 792.34C741.94 786.21 749.4 782.06 749.4 782.06L753.49 788.6L765.7 780.46C765.7 780.46 762.34 774.94 758.28 767.21C756.28 763.35 753.76 762.05 751.07 758.8C748.38 755.55 742.21 751.4 742.21 751.4C735.66 755.81 719.03 767.63 713.48 765.76C713.817 768.994 713.594 772.262 712.82 775.42C712.6 776.48 712.31 777.55 712.01 778.61C711.73 779.49 711.44 780.35 711.13 781.21C710.73 782.32 710.32 783.43 709.85 784.55C705.15 795.83 697.43 807.04 694.26 814.96C689.29 827.39 702.88 821.12 715.82 815.4Z" fill="#454851"/>
<path d="M609.6 490.41C609.6 490.41 594 628.94 593.5 641.15C593 653.36 600.09 780.27 600.09 780.27C600.09 780.27 619.09 787.92 632.72 782.71C632.72 782.71 643.46 685.41 641.83 660.71L645.41 613.85C645.41 613.85 648.34 652.9 651.27 657.46C654.2 662.02 711.15 769.09 711.15 769.09C711.15 769.09 743.69 754.44 743.69 750.21C743.69 750.21 724.82 672.11 700.69 650.3C700.59 620.087 700.483 589.877 700.37 559.67C705.77 546.021 707.781 531.266 706.23 516.67C705.202 507.392 702.729 498.333 698.9 489.82C698.9 489.82 629.13 500.18 609.6 490.41Z" fill="#25BEEF"/>
<path d="M644.27 598.68C641.66 568.68 636.27 539.91 634.51 540.1C633.16 540.24 634.51 555.17 634.99 589.4C635.36 617.33 634.8 636.08 633.99 662.63C632.46 714.43 630.38 723.32 628.16 730.48C622.341 748.843 612.773 765.798 600.06 780.27C606.46 783.16 616.83 786.47 628.43 783.91C629.872 783.593 631.295 783.193 632.69 782.71C632.69 782.71 643.43 685.41 641.8 660.71L645.26 615.36C645.16 610.76 644.88 605.75 644.27 598.68Z" fill="#1A87C4"/>
<path d="M719.48 719.5C715.48 698.04 703.34 693.82 693.35 668.71C687.35 653.59 686.65 636.24 685.26 601.54C683.13 548.32 688.74 544.25 681.73 531.31C663.26 497.24 608.84 496.11 609.6 490.41C630.69 497.65 689.22 491.06 697.86 489.96L698.56 489.87H698.89C702.719 498.383 705.192 507.442 706.22 516.72C707.771 531.316 705.76 546.071 700.36 559.72C700.473 589.933 700.58 620.143 700.68 650.35C724.77 672.16 743.68 750.26 743.68 750.26C742.933 751.233 742.123 752.193 741.25 753.14C734.71 758.2 716.85 766.52 712.25 768.63L712.16 768.68H712.07L711.83 768.79L711.69 768.85H711.59L711.46 768.91H711.41L711.15 769.03C716.93 757.16 723.2 739.29 719.48 719.5Z" fill="#1A87C4"/>
<path d="M702 497.64C702 497.64 650.55 510.64 608.77 497.64" stroke="white" stroke-width="3" stroke-miterlimit="10"/>
<path d="M660.85 277.52C660.85 277.52 682.85 267.96 691.34 286.87C699.83 305.78 712.86 366.54 735.06 369.92C735.06 369.92 722.82 377.47 710.7 362.63C698.58 347.79 690.48 334 688.23 327.19C689.512 339.792 694.219 351.803 701.84 361.92C714.6 378.92 732.99 410.74 709.45 416.3C709.45 416.3 721.68 411.02 709.51 395.87C697.34 380.72 636.86 329.43 661.39 290.19C666.19 282.51 660.85 277.52 660.85 277.52Z" fill="black"/>
<path d="M644.14 274.65C656.54 277.07 664.14 292.86 662.4 311.18H662.49C665.88 311.84 667.88 316.18 666.96 320.94C666.04 325.7 662.54 328.94 659.15 328.32C658.698 328.231 658.263 328.073 657.86 327.85C650.97 341.73 637.6 349.45 626.6 347.31C612.95 344.64 608.11 327.79 612.14 307.16C616.17 286.53 630.49 272 644.14 274.65Z" fill="#EA9D7D"/>
<path d="M631 358.15C631.63 355.94 629 350.54 627.4 347.43C638.26 349.1 651.18 341.43 657.91 327.87C658.313 328.093 658.748 328.251 659.2 328.34C659.2 328.34 660.25 356.55 666.37 356.9C673.52 363.03 696.88 383.8 692.12 393.43C688.12 401.51 666.56 397.34 634.4 391.13C631.274 390.642 628.358 389.252 626.01 387.13C619.27 380.7 621.11 369.13 622.01 366.52C623.24 363.11 630.05 361.35 631 358.15Z" fill="#EA9D7D"/>
<path d="M660.06 339.58C659.35 333.58 659.15 328.34 659.15 328.34C658.698 328.251 658.263 328.093 657.86 327.87C651.13 341.43 638.21 349.1 627.35 347.43C628.586 349.693 629.632 352.055 630.48 354.49C630.76 354.56 631.03 354.63 631.31 354.68C641.1 356.59 652.76 350.68 660.06 339.58ZM662.61 315.4C663.445 315.967 664.076 316.787 664.41 317.74C664.781 318.723 664.861 319.793 664.64 320.82C664.432 321.842 663.94 322.785 663.22 323.54C662.883 323.919 662.5 324.255 662.08 324.54C661.649 324.784 661.193 324.981 660.72 325.13C660.91 324.694 661.127 324.269 661.37 323.86C661.55 323.45 661.79 323.09 661.93 322.69C662.265 321.978 662.516 321.23 662.68 320.46C662.97 318.784 662.946 317.068 662.61 315.4V315.4Z" fill="#D18165"/>
<path d="M666.32 356.9C662.59 356.69 660.75 346.12 659.87 337.9L654.4 340.36L649.71 350.16C649.71 350.16 658.71 352.16 654.4 361.36C650.57 369.65 640.4 388.47 625.7 386.86C627.83 388.04 630.77 389.57 634.35 391.13C657.9 401.37 690.03 404.61 694.71 395.35C699.39 386.09 676 365.13 666.32 356.9Z" fill="#D18165"/>
<path d="M617 292.92C617 292.92 623.27 283.17 625.09 285.35C626.91 287.53 630.4 293.41 642.32 292.79C642.32 292.79 650.32 303.19 651.96 315.39C653.6 327.59 662.52 311.2 662.52 311.2C662.52 311.2 673.92 282.79 661.61 276.03C649.3 269.27 636.96 269.12 624.61 276.03C612.26 282.94 617 292.92 617 292.92Z" fill="black"/>
<path d="M618.26 333.81C628.26 334.27 629.39 326.59 629.39 326.59C625.377 327.858 621.12 328.153 616.97 327.45C616.97 327.45 619.91 330.78 618.26 333.81Z" fill="#BE3E5F"/>
<path d="M621.06 305.77C621.439 307.836 621.482 309.95 621.19 312.03C621.051 313.133 620.737 314.206 620.26 315.21C619.99 315.78 619.71 316.14 619.46 316.59C619.21 317.04 618.94 317.43 618.72 317.85C618.274 318.564 618 319.372 617.92 320.21C617.913 320.357 617.934 320.505 617.984 320.644C618.034 320.783 618.111 320.911 618.21 321.02C618.48 321.296 618.803 321.514 619.16 321.66C621.054 322.237 623.012 322.573 624.99 322.66C622.952 323.36 620.767 323.515 618.65 323.11C618.025 322.963 617.447 322.661 616.97 322.23C616.432 321.727 616.097 321.044 616.03 320.31C616.009 319.098 616.331 317.906 616.96 316.87C617.22 316.39 617.5 315.93 617.79 315.5C618.08 315.07 618.42 314.61 618.61 314.27C619.066 313.449 619.422 312.576 619.67 311.67C620.22 309.8 620.61 307.8 621.06 305.77Z" fill="#D18165"/>
<path d="M627.31 301.67C629.302 301.973 631.271 302.417 633.2 303C634.131 303.29 635.038 303.654 635.91 304.09C636.81 304.51 637.63 305.09 638.57 305.61C638.111 304.625 637.425 303.761 636.57 303.09C635.709 302.402 634.729 301.877 633.68 301.54C632.645 301.21 631.566 301.042 630.48 301.04C629.391 301.032 628.313 301.247 627.31 301.67ZM617.08 299.73C616.201 299.365 615.269 299.145 614.32 299.08C614.14 299.57 613.98 300.08 613.82 300.58C614.796 300.597 615.77 300.694 616.73 300.87C617.73 301.01 618.65 301.33 619.73 301.58C619.007 300.76 618.098 300.126 617.08 299.73V299.73ZM614.74 313.33C614.937 313.369 615.14 313.369 615.337 313.329C615.534 313.289 615.721 313.211 615.887 313.098C616.054 312.986 616.196 312.841 616.307 312.674C616.417 312.506 616.493 312.317 616.53 312.12L617.39 307.72C617.444 307.332 617.346 306.939 617.118 306.62C616.89 306.302 616.549 306.083 616.165 306.009C615.78 305.934 615.382 306.01 615.052 306.221C614.722 306.431 614.485 306.76 614.39 307.14L613.54 311.54C613.501 311.736 613.501 311.939 613.54 312.135C613.579 312.331 613.656 312.518 613.768 312.684C613.879 312.851 614.023 312.993 614.19 313.104C614.356 313.215 614.543 313.292 614.74 313.33ZM630.15 314.27C630.348 314.309 630.551 314.309 630.749 314.269C630.946 314.23 631.134 314.151 631.301 314.039C631.469 313.927 631.612 313.782 631.723 313.614C631.835 313.446 631.912 313.258 631.95 313.06L632.81 308.67C632.858 308.47 632.865 308.261 632.83 308.058C632.796 307.855 632.721 307.661 632.609 307.487C632.498 307.314 632.353 307.165 632.182 307.049C632.012 306.933 631.82 306.852 631.617 306.813C631.415 306.773 631.207 306.774 631.005 306.817C630.803 306.86 630.612 306.943 630.444 307.061C630.275 307.18 630.132 307.331 630.023 307.506C629.914 307.681 629.842 307.876 629.81 308.08L628.95 312.48C628.873 312.876 628.957 313.287 629.181 313.622C629.406 313.957 629.754 314.19 630.15 314.27ZM642.65 288.49C644.3 290.911 645.78 293.444 647.08 296.07C648.375 298.669 649.521 301.34 650.51 304.07C652.522 309.507 653.783 315.192 654.26 320.97C655.261 332.537 652.179 344.089 645.55 353.62C648.57 348.791 650.75 343.486 652 337.93C653.204 332.407 653.454 326.718 652.74 321.11C652.034 315.524 650.571 310.061 648.39 304.87C647.312 302.281 646.09 299.753 644.73 297.3C643.39 294.868 641.886 292.529 640.23 290.3L642.65 288.49Z" fill="black"/>
<path d="M504 447.84C498.48 443.15 490.21 436.38 488.44 436.39C485.72 436.39 480.91 438.13 492.14 447.76L492.05 447.83C491.64 448.11 489.77 449.2 485.13 449.24C479.79 449.24 473.84 480.69 489.94 476.24L512.34 474.6C526.94 477.44 580.25 513.02 594.68 499.54C608.19 486.91 618.52 425.66 618.52 425.66L582.94 431.87L573.11 465.69C572.884 466.478 572.499 467.211 571.979 467.845C571.459 468.478 570.815 468.999 570.086 469.374C569.357 469.748 568.558 469.97 567.741 470.024C566.923 470.079 566.102 469.965 565.33 469.69L504 447.84Z" fill="#EA9D7D"/>
<path d="M504 447.84C498.48 443.15 490.21 436.38 488.44 436.39C485.72 436.39 480.91 438.13 492.14 447.76L492.05 447.83C491.64 448.11 489.77 449.2 485.13 449.24C479.79 449.24 473.84 480.69 489.94 476.24L512.34 474.6C526.94 477.44 580.25 513.02 594.68 499.54C608.19 486.91 618.52 425.66 618.52 425.66L582.94 431.87L573.11 465.69C572.884 466.478 572.499 467.211 571.979 467.845C571.459 468.478 570.815 468.999 570.086 469.374C569.357 469.748 568.558 469.97 567.741 470.024C566.923 470.079 566.102 469.965 565.33 469.69L504 447.84Z" fill="#EA9D7D"/>
<path d="M519.13 453L516.35 475.01" stroke="#2F170B" stroke-width="6" stroke-linecap="round" stroke-linejoin="round"/>
<path d="M492 448.06C492 448.06 497.75 463.79 512 458.06" stroke="#2F170B" stroke-width="2" stroke-miterlimit="10"/>
<path d="M472.925 425.618L486.869 424.366L492.234 484.126C492.4 485.975 491.824 487.814 490.634 489.239C489.444 490.664 487.737 491.558 485.888 491.724C484.039 491.89 482.199 491.314 480.774 490.124C479.35 488.934 478.456 487.227 478.29 485.377L472.925 425.618Z" fill="#25BEEF"/>
<path d="M488.588 421.198L470.66 422.808L470.928 425.796L488.856 424.186L488.588 421.198Z" fill="#1A87C4"/>
<path d="M475.05 449.58C476.19 444.74 482.38 452.9 483.73 456.79C485.08 460.68 490.34 474.48 477.56 477.53C477.56 477.53 470.69 468.08 475.05 449.58Z" fill="#EA9D7D"/>
<path d="M485.86 491.74C486.776 491.658 487.667 491.397 488.482 490.971C489.297 490.544 490.02 489.962 490.61 489.256C491.2 488.55 491.645 487.735 491.919 486.857C492.194 485.979 492.292 485.056 492.21 484.14L487.3 429.43C485.612 432.613 484.559 436.095 484.2 439.68C483.73 444.15 484.82 445.78 486.54 454.53C488.82 466.1 489.9 471.95 487.42 475.53C484.54 479.69 479.92 478.93 478.09 483.39L478.27 485.39C478.435 487.238 479.327 488.945 480.751 490.136C482.174 491.327 484.012 491.904 485.86 491.74V491.74Z" fill="#1A87C4"/>
<path d="M565.38 461.62C566.91 461.948 568.507 461.7 569.866 460.923C571.224 460.146 572.247 458.895 572.74 457.41L596.04 387.41C598.367 379.915 602.897 373.294 609.04 368.41C610.609 367.157 612.309 366.077 614.11 365.19C614.265 365.116 614.437 365.083 614.609 365.095C614.78 365.107 614.946 365.162 615.09 365.257C615.234 365.351 615.351 365.481 615.43 365.634C615.508 365.787 615.546 365.958 615.54 366.13L613.59 425L607.75 480.72C607.75 481.17 607.75 481.62 607.67 482.07C606.3 498.29 589.24 508.33 574.09 502.37L522.16 481.96L528.16 453.73L565.38 461.62Z" fill="#E3EAF3"/>
<path d="M523.63 475C523.63 475 568.51 488.29 583.84 475C592.42 467.56 611.2 391.42 611.2 391.42C612.139 389.408 613.372 387.548 614.86 385.9L613.59 424.9L607.75 480.62C607.75 481.07 607.75 481.52 607.67 481.97C606.3 498.19 589.24 508.23 574.09 502.27L522.16 481.86L523.63 475Z" fill="#ABBCCA"/>
<path d="M759.56 559.28C759.102 557.478 758.857 555.629 758.83 553.77C758.6 538.21 757.12 478.82 748.15 451.77C745.3 443.14 719.09 399.23 719.09 399.23L681.65 407.15L714.65 461.94C716.112 464.369 717.188 467.011 717.84 469.77L737.95 555.42C738.226 556.594 738.235 557.816 737.977 558.994C737.719 560.172 737.201 561.278 736.46 562.23C732.23 567.66 723.85 578.69 723.99 580.72C724.17 583.43 726.17 588.13 735.12 576.35C735.12 576.35 736.65 577.93 737.01 583.26C737.37 588.59 738.13 609.1 739.81 609.44C741.49 609.78 745.3 614.67 744.04 586.79C744.04 586.79 746.52 585.41 746.68 587.79C746.84 590.17 748.22 613.08 751.08 610.63C753.94 608.18 753.08 604.9 752.2 586.63C752.2 586.63 754.07 585.15 754.43 586.03C754.79 586.91 756.84 608.55 758.65 608.43C760.46 608.31 762.97 612.07 759.39 581.16C759.39 581.16 760.39 580.64 761.53 583.74C762.67 586.84 767.03 600.46 768.45 596.74C769.87 593.02 769.08 592.62 763.64 576.81L759.59 559.24L759.56 559.28Z" fill="#EA9D7D"/>
<path d="M681.65 407.14L690.48 405.27C697.08 413.64 705.28 419.73 715.96 435.37C724.29 447.55 729.68 459.96 732.07 465.2C738.63 479.56 737.3 486.89 741.67 522.32C744.3 543.6 745.61 554.23 746.99 559.8C746.99 559.8 755.27 595.73 752.05 609.52C751.982 609.773 751.856 610.006 751.682 610.202C751.509 610.398 751.292 610.551 751.05 610.65C748.19 613.1 746.81 590.22 746.65 587.81C746.49 585.4 744.01 586.81 744.01 586.81C745.27 614.69 741.47 609.81 739.78 609.46C738.09 609.11 737.34 588.7 736.98 583.32C736.62 577.99 735.09 576.41 735.09 576.41C726.09 588.19 724.09 583.49 723.96 580.78C723.82 578.78 732.2 567.72 736.43 562.29C737.171 561.338 737.689 560.232 737.947 559.054C738.205 557.876 738.196 556.654 737.92 555.48L717.81 469.83C717.158 467.071 716.082 464.429 714.62 462L681.65 407.14Z" fill="#D18165"/>
<path d="M591.59 596.27C592.352 597.024 593.256 597.619 594.25 598.021C595.244 598.423 596.308 598.623 597.38 598.61H714.67C715.884 598.609 717.084 598.346 718.188 597.839C719.291 597.332 720.273 596.593 721.064 595.672C721.856 594.752 722.44 593.671 722.776 592.504C723.111 591.337 723.191 590.111 723.01 588.91L682.77 362.7L666.1 356.38C663.7 355.08 662.67 351.08 662.27 348.8C662.19 348.368 661.942 347.985 661.58 347.736C661.218 347.487 660.772 347.391 660.34 347.47L630.45 352.81C630.234 352.849 630.028 352.929 629.844 353.048C629.659 353.167 629.5 353.32 629.376 353.501C629.251 353.681 629.164 353.884 629.118 354.099C629.072 354.313 629.07 354.535 629.11 354.75C629.45 356.65 629.69 359.58 627.99 359.84L615.55 364.57C613.082 365.167 610.901 366.608 609.385 368.645C607.869 370.682 607.114 373.185 607.25 375.72L607.4 380.22C607.93 396.4 611.71 441.22 607.75 480.67C602.82 529.62 589.92 574.41 590.57 594.48C590.58 594.66 590.61 595.28 591.59 596.27Z" fill="#E3EAF3"/>
<path d="M762.57 553.37C763.99 552.37 759.17 496.37 754.41 465.51C752.74 454.67 747.64 438.13 741.69 428.93C741.69 428.93 722.16 395.29 709.29 380.45C704.69 375.14 696.15 365.45 682.77 362.7L675.15 402.44L712.53 464.09C712.95 464.72 734.46 553.81 735.09 553.37H762.57Z" fill="#E3EAF3"/>
<path d="M676.33 400.34C676.029 400.577 675.788 400.881 675.626 401.229C675.465 401.576 675.387 401.957 675.4 402.34L675.34 402.73L691.69 429.73L712.53 464.1C712.95 464.73 734.46 553.82 735.08 553.38H745.08L745.02 553.12C731.94 494.51 725.35 465.12 723.24 459.9C709.12 425.18 681.19 397.65 676.33 400.34ZM628 359.84C631.04 360.543 634.15 360.896 637.27 360.89C640.385 360.945 643.498 360.744 646.58 360.29C649.667 359.872 652.712 359.186 655.68 358.24C658.669 357.331 661.545 356.083 664.25 354.52C661.13 354.91 658.15 355.52 655.14 355.96L650.64 356.67C649.14 356.87 647.64 357.13 646.15 357.32L637.15 358.57C634.1 359 631.08 359.35 628 359.84Z" fill="#ABBCCA"/>
<path d="M723 588.91L722.72 587.38L694 425.93C687.26 411.93 678.67 399.48 676.34 400.34C674.34 401.08 675.41 410.43 675.34 411.53C672.34 461.88 609.13 433.82 608.49 432.77C609.35 437.12 611.43 444.02 617.13 449.51C630.78 462.64 653.47 456.38 660.19 454.51L660.5 454.42C663.641 453.51 666.955 453.373 670.161 454.018C673.366 454.664 676.369 456.074 678.912 458.129C681.456 460.184 683.466 462.823 684.771 465.821C686.077 468.819 686.639 472.088 686.41 475.35C683.18 518.35 660.33 548.19 660.33 548.19C640.41 574.19 608.44 586.7 590.53 592.31C590.484 593.026 590.484 593.744 590.53 594.46C590.97 597.2 594.8 598.59 597.22 598.7C607.95 599.21 654.71 598.59 654.71 598.59H714.63C715.845 598.593 717.046 598.334 718.152 597.83C719.258 597.326 720.241 596.589 721.036 595.67C721.831 594.751 722.417 593.672 722.756 592.505C723.095 591.338 723.179 590.112 723 588.91V588.91Z" fill="#ABBCCA"/>
<path d="M806.24 65.58V358.65H1057.3V65.58H806.24ZM922.7 338.58H820.56V82.76H922.7V338.58ZM1042.99 338.58H940.84V82.76H1043L1042.99 338.58Z" fill="#87DBF6"/>
<path d="M842.59 82.76C842.59 82.76 828.19 246.3 855.59 283.28C882.99 320.26 922.75 311.06 922.75 311.06V338.6H820.56V82.76H842.59ZM962.87 82.76C962.87 82.76 948.47 246.3 975.87 283.28C1003.27 320.26 1043 311.06 1043 311.06V338.6H940.85V82.76H962.87Z" fill="#A8E5F9"/>
<path d="M1071.1 64.08H792.46V67.08H1071.1V64.08Z" fill="#FF0068"/>
<path d="M1071.1 74.79H792.46V77.79H1071.1V74.79Z" fill="#FF0068"/>
<path d="M1071.1 85.51H792.46V88.51H1071.1V85.51Z" fill="#FF0068"/>
<path d="M1071.1 96.23H792.46V99.23H1071.1V96.23Z" fill="#FF0068"/>
<path d="M1071.1 106.95H792.46V109.95H1071.1V106.95Z" fill="#FF0068"/>
<path d="M1071.1 117.66H792.46V120.66H1071.1V117.66Z" fill="#FF0068"/>
<path d="M1071.1 128.38H792.46V131.38H1071.1V128.38Z" fill="#FF0068"/>
<path d="M1071.1 139.1H792.46V142.1H1071.1V139.1Z" fill="#FF0068"/>
<path d="M1071.1 149.82H792.46V152.82H1071.1V149.82Z" fill="#FF0068"/>
<path d="M1071.1 160.53H792.46V163.53H1071.1V160.53Z" fill="#FF0068"/>
<path d="M1071.1 171.1H792.46V174.1H1071.1V171.1Z" fill="#FF0068"/>
<path d="M1071.1 181.82H792.46V184.82H1071.1V181.82Z" fill="#FF0068"/>
<path d="M1071.1 192.54H792.46V195.54H1071.1V192.54Z" fill="#FF0068"/>
<path d="M1071.1 203.26H792.46V206.26H1071.1V203.26Z" fill="#FF0068"/>
<path d="M1071.1 213.97H792.46V216.97H1071.1V213.97Z" fill="#FF0068"/>
<path d="M1071.1 224.69H792.46V227.69H1071.1V224.69Z" fill="#FF0068"/>
<path d="M1071.1 235.41H792.46V238.41H1071.1V235.41Z" fill="#FF0068"/>
<path d="M1071.1 246.13H792.46V249.13H1071.1V246.13Z" fill="#FF0068"/>
<path d="M1071.1 256.84H792.46V259.84H1071.1V256.84Z" fill="#FF0068"/>
<path d="M1071.1 267.56H792.46V270.56H1071.1V267.56Z" fill="#FF0068"/>
<path d="M196.78 761.36L195.78 760.57C196.78 753.16 199.93 730.57 203.97 702.25C213.83 633.17 229.09 530.39 232.21 533.39C236.47 537.49 236.56 589.47 231.65 650.48C231.17 656.44 230.643 662.467 230.07 668.56C229.47 674.92 228.913 680.993 228.4 686.78C226.14 692.27 223.73 697.89 221.2 703.56C204.37 741.29 196.78 761.36 196.78 761.36Z" fill="#7BCE34"/>
<path d="M203 751.42C203 751.42 207.35 730.42 218 690.51C228.65 650.6 234.37 613.43 231.35 609.91C229.94 608.26 219.54 637 208.9 668C204.14 700.63 199.9 731.06 197.46 748.36L203 751.42Z" fill="#3C8F2D"/>
<path d="M204.71 809L205.95 808.66C207.86 801.43 213.68 779.34 220.83 751.66C238.32 684.1 263.78 583.36 259.75 584.93C254.24 587.08 234.15 635.01 215.2 693.22C213.36 698.9 211.53 704.663 209.71 710.51C207.81 716.61 205.987 722.433 204.24 727.98C204.24 733.91 204.24 739.98 204.42 746.23C205.43 787.53 204.71 809 204.71 809Z" fill="#3C8F2D"/>
<path d="M99 643.18C100.656 642.252 102.369 641.43 104.13 640.72C105.88 639.98 107.67 639.35 109.48 638.72C113.124 637.568 116.852 636.702 120.63 636.13C128.421 634.898 136.364 634.975 144.13 636.36C148.151 637.083 152.085 638.222 155.87 639.76C157.787 640.556 159.657 641.461 161.47 642.47L162.84 643.23C163.29 643.49 163.72 643.78 164.16 644.06C165.03 644.64 165.93 645.17 166.78 645.79C170.168 648.239 173.306 651.016 176.15 654.08L178.22 656.41C178.39 656.61 178.58 656.81 178.73 657L179.17 657.57L180.07 658.7L183.65 663.25C185.85 666.41 188.17 669.49 190.08 672.83L191.57 675.3C191.81 675.72 192.07 676.13 192.3 676.55L192.97 677.82L195.7 683C197.33 686.47 199 689.91 200.4 693.46L201.51 696.1L202.51 698.77L203.51 701.44L204.02 702.78L204.47 704.13C205.08 705.94 205.77 707.71 206.47 709.5C207.17 711.29 207.79 713.09 208.47 714.88C209.15 716.67 209.67 718.52 210.2 720.36C210.73 722.2 211.07 724.08 211.41 725.96C211.56 726.96 211.67 727.86 211.78 728.81C211.89 729.76 211.99 730.72 212.07 731.67C212.18 733.59 212.29 735.51 212.26 737.44C212.243 739.375 212.126 741.307 211.91 743.23C211.717 745.188 211.383 747.13 210.91 749.04L199.03 749.46C197.73 746.1 196.78 742.78 195.85 739.46L195.16 736.98C194.95 736.15 194.72 735.32 194.53 734.49C194.077 732.837 193.663 731.17 193.29 729.49C192.88 727.83 192.54 726.17 192.24 724.49C191.94 722.81 191.63 721.14 191.36 719.44C191.09 717.74 190.71 716.08 190.36 714.44C190.01 712.8 189.46 711.14 188.96 709.51L188.56 708.29L188 707L187.11 704.6C186.81 703.8 186.5 703 186.18 702.21L185.18 699.87C183.86 696.72 182.25 693.72 180.72 690.68L178.19 686.26L177.56 685.16C177.34 684.8 177.1 684.45 176.87 684.09L175.52 682L174.16 679.85C173.73 679.13 173.16 678.47 172.73 677.77L169.83 673.61L166.7 669.61L165.92 668.61L165.53 668.12L165.14 667.68L163.59 665.98C163.08 665.41 162.49 664.92 161.95 664.38L161.13 663.59C160.84 663.33 160.54 663.1 160.25 662.85C159.66 662.37 159.11 661.85 158.5 661.39L156.67 660C156.07 659.53 155.41 659.14 154.79 658.7C154.47 658.49 154.16 658.27 153.84 658.07L152.84 657.48C151.55 656.65 150.18 655.94 148.84 655.18C146.035 653.713 143.143 652.417 140.18 651.3C133.902 648.963 127.391 647.307 120.76 646.36C117.34 645.83 113.84 645.45 110.29 645.17C106.74 644.89 103.11 644.71 99.45 644.64L99 643.18Z" fill="#3C8F2D"/>
<path d="M198.64 748.52V747.17C198.64 746.32 198.58 745.46 198.52 744.61L198.29 742.06C198.04 738.66 197.46 735.3 196.97 731.94L195.97 726.94L195.72 725.69C195.63 725.27 195.52 724.87 195.42 724.46L194.8 722L194.19 719.53C194.01 718.7 193.71 717.91 193.49 717.1L192 712.25L190.29 707.49L189.86 706.3L189.65 705.71C189.57 705.51 189.49 705.35 189.41 705.18L188.48 703.07C188.18 702.37 187.78 701.72 187.48 701.07L186.95 700.07C186.76 699.74 186.55 699.42 186.35 699.07C185.95 698.43 185.58 697.76 185.16 697.13L183.85 695.26C183.43 694.62 182.93 694.04 182.48 693.43C182.24 693.13 182.02 692.82 181.78 692.52L181.51 692.21C182.8 694.75 184.11 697.28 185.22 699.92L186.22 702.26C186.54 703.05 186.85 703.85 187.15 704.65L188 707L188.45 708.21L188.85 709.43C189.35 711.06 189.85 712.69 190.25 714.36C190.65 716.03 190.94 717.72 191.25 719.36C191.56 721 191.79 722.74 192.13 724.41C192.47 726.08 192.77 727.75 193.18 729.41C193.59 731.07 193.97 732.72 194.42 734.41C194.61 735.24 194.84 736.07 195.05 736.9L195.74 739.38C196.63 742.43 197.51 745.46 198.64 748.52ZM148.84 655.21C150.19 655.97 151.56 656.68 152.84 657.51L153.84 658.1C154.16 658.3 154.47 658.52 154.79 658.73C155.41 659.17 156.07 659.56 156.67 660.03L158.5 661.4L158.57 661.45C165.877 662.803 172.925 665.304 179.45 668.86C183.034 670.823 186.406 673.152 189.51 675.81C191.076 677.169 192.562 678.618 193.96 680.15L194.56 680.8L193 677.87L192.33 676.6C192.1 676.18 191.84 675.77 191.6 675.35L190.11 672.88C188.2 669.54 185.88 666.46 183.68 663.3L180.1 658.75L179.2 657.62L178.76 657.05C178.61 656.86 178.42 656.66 178.25 656.46L176.18 654.13C173.336 651.066 170.198 648.289 166.81 645.84C165.96 645.22 165.06 644.69 164.19 644.11C163.75 643.83 163.32 643.54 162.87 643.28L161.5 642.52C159.687 641.511 157.817 640.606 155.9 639.81C152.115 638.272 148.181 637.133 144.16 636.41C136.394 635.025 128.452 634.948 120.66 636.18C116.882 636.752 113.154 637.618 109.51 638.77C107.7 639.35 105.91 639.98 104.16 640.77C102.39 641.463 100.667 642.268 99 643.18L99.41 644.67C103.07 644.74 106.7 644.9 110.25 645.2C113.8 645.5 117.25 645.86 120.72 646.39C127.351 647.337 133.862 648.993 140.14 651.33C143.116 652.445 146.022 653.741 148.84 655.21V655.21ZM314.77 630.24C312.995 629.557 311.178 628.99 309.33 628.54C307.5 628.07 305.64 627.7 303.77 627.39C299.993 626.782 296.175 626.464 292.35 626.44C284.462 626.35 276.614 627.577 269.13 630.07C265.255 631.367 261.525 633.062 258 635.13C256.219 636.196 254.5 637.361 252.85 638.62L251.61 639.62C251.2 639.95 250.82 640.3 250.42 640.62C249.64 641.31 248.83 641.97 248.08 642.7C245.081 645.615 242.375 648.817 240 652.26L238.29 654.87C238.15 655.09 238 655.31 237.88 655.52L237.52 656.15L236.8 657.4L233.91 662.4C232.19 665.84 230.34 669.23 228.91 672.81L227.8 675.48C227.62 675.92 227.43 676.36 227.26 676.81L226.77 678.16L224.85 683.59C223.74 687.25 222.59 690.9 221.71 694.59L220.99 697.36L220.38 700.15L219.76 702.94L219.45 704.33L219.2 705.74C218.86 707.61 218.43 709.47 218.04 711.33C217.65 713.19 217.25 715.07 216.85 716.95C216.45 718.83 216.18 720.71 215.93 722.61C215.68 724.51 215.6 726.42 215.54 728.33C215.54 729.33 215.54 730.25 215.59 731.21C215.64 732.17 215.65 733.12 215.71 734.08C215.88 736 216.05 737.9 216.36 739.81C216.658 741.723 217.055 743.619 217.55 745.49C218.035 747.397 218.66 749.265 219.42 751.08L231.24 749.78C232.04 746.27 232.5 742.85 232.94 739.42L233.26 736.86C233.35 736.01 233.46 735.16 233.52 734.31C233.73 732.61 233.9 730.92 234.03 729.22C234.16 727.52 234.3 725.83 234.35 724.13C234.4 722.43 234.47 720.72 234.49 719C234.51 717.28 234.65 715.58 234.76 713.87C234.87 712.16 235.17 710.47 235.43 708.78L235.65 707.52L235.92 706.26L236.46 703.76C236.64 702.92 236.82 702.09 237.02 701.26L237.7 698.79C238.55 695.48 239.7 692.28 240.79 689.06L242.65 684.32L243.11 683.14C243.28 682.75 243.46 682.36 243.64 681.98L244.64 679.66L245.64 677.34C245.96 676.56 246.4 675.84 246.76 675.07L249.02 670.54L251.54 666.16L252.17 665.07L252.49 664.52C252.6 664.34 252.71 664.2 252.82 664.04L254.1 662.13C254.52 661.49 255.03 660.92 255.49 660.31L256.19 659.4C256.43 659.11 256.7 658.83 256.95 658.55C257.46 657.99 257.95 657.39 258.47 656.84L260.08 655.23C260.61 654.68 261.2 654.23 261.76 653.67C262.04 653.42 262.32 653.15 262.61 652.9C262.9 652.65 263.21 652.43 263.5 652.18C264.65 651.18 265.91 650.27 267.13 649.32C269.692 647.465 272.364 645.765 275.13 644.23C281.006 641.017 287.208 638.439 293.63 636.54C296.94 635.54 300.34 634.63 303.82 633.84C307.3 633.05 310.82 632.35 314.47 631.75L314.77 630.24Z" fill="#7BCE34"/>
<path d="M261.86 653.69L261.99 653.58C258.637 654.579 255.367 655.84 252.21 657.35C248.527 659.113 245.035 661.251 241.79 663.73C240.153 665.006 238.587 666.372 237.1 667.82L236 668.91C235.64 669.29 235.29 669.68 234.94 670.07C234.25 670.85 233.52 671.6 232.87 672.42C230.245 675.678 227.944 679.185 226 682.89L224.62 685.69C224.51 685.93 224.38 686.17 224.29 686.39L224.01 687.06L223.45 688.39L223.34 688.64C222.76 690.64 222.2 692.64 221.73 694.64L221.01 697.41L220.4 700.2L219.78 702.99L219.47 704.38L219.22 705.79C218.88 707.66 218.45 709.52 218.06 711.38C217.67 713.24 217.27 715.12 216.87 717C216.47 718.88 216.2 720.76 215.95 722.66C215.7 724.56 215.62 726.47 215.56 728.38C215.56 729.38 215.56 730.3 215.61 731.26C215.66 732.22 215.67 733.17 215.73 734.13C215.9 736.05 216.07 737.95 216.38 739.86C216.678 741.773 217.075 743.669 217.57 745.54C218.055 747.447 218.68 749.315 219.44 751.13L228.7 750.13C228.705 750.057 228.705 749.983 228.7 749.91C228.57 748.21 228.44 746.5 228.35 744.78C228.26 743.06 228.35 741.36 228.35 739.65L228.42 738.37L228.53 737.09L228.76 734.54C228.84 733.69 228.92 732.84 229.02 731.99L229.39 729.46C229.83 726.07 230.59 722.75 231.27 719.46L232.54 714.53L232.85 713.3C232.97 712.89 233.11 712.49 233.23 712.09L233.99 709.66L234.72 707.24C234.95 706.42 235.29 705.65 235.56 704.84L237.25 700.07L237.62 699.21L237.7 698.9C238.55 695.59 239.7 692.39 240.79 689.17L242.65 684.43L243.11 683.25C243.28 682.86 243.46 682.47 243.64 682.09L244.64 679.77L245.64 677.45C245.96 676.67 246.4 675.95 246.76 675.18L249.02 670.65L251.54 666.27L252.17 665.18L252.49 664.63C252.6 664.45 252.71 664.31 252.82 664.15L254.1 662.24C254.52 661.6 255.03 661.03 255.49 660.42L256.19 659.51C256.43 659.22 256.7 658.94 256.95 658.66C257.46 658.1 257.95 657.5 258.47 656.95L260.08 655.34C260.71 654.7 261.3 654.22 261.86 653.69Z" fill="#3C8F2D"/>
<path d="M229.73 753.49L228.46 753.34C225.46 746.51 216.13 725.65 204.62 699.5C176.52 635.63 135.2 540.29 139.43 541.19C145.22 542.42 172.74 586.51 200.79 640.92C203.53 646.253 206.267 651.65 209 657.11C211.84 662.823 214.573 668.277 217.2 673.47C218.2 679.31 219.1 685.36 219.95 691.47C225.58 732.43 229.73 753.49 229.73 753.49Z" fill="#7BCE34"/>
<path d="M229.74 741.78C229.74 741.78 222.33 721.64 210.34 682.12C198.35 642.6 183.55 608.02 179.12 606.62C177.05 605.96 183.39 635.85 190.72 667.78C203.91 698.01 216.35 726.11 223.44 742.07L229.74 741.78Z" fill="#3C8F2D"/>
<path d="M229.73 753.49L228.46 753.34L208.68 751.11C208.68 751.11 206.68 727.38 204.62 699.5C203.15 679.72 201.62 657.84 200.79 640.92C199.92 623.58 199.73 611.43 200.97 612.05C204.5 613.81 211.67 640.41 217.2 673.47C218.2 679.31 219.1 685.36 219.95 691.47C225.58 732.43 229.73 753.49 229.73 753.49Z" fill="#7BCE34"/>
<path d="M344.56 733.33C338.64 728.42 332.82 723.93 327.48 719.33C324.82 717.02 322.24 714.73 319.92 712.33C317.68 710.128 315.623 707.746 313.77 705.21C312.952 704.091 312.194 702.93 311.5 701.73C311.353 701.443 311.193 701.163 311.02 700.89C310.85 700.61 310.74 700.33 310.6 700.06L309.3 697.51C308.242 695.578 307.049 693.724 305.73 691.96C304.387 690.197 302.927 688.527 301.36 686.96C298.194 683.856 294.645 681.167 290.8 678.96C286.932 676.698 282.779 674.966 278.45 673.81C276.207 673.218 273.914 672.837 271.6 672.67C269.188 672.477 266.761 672.568 264.37 672.94C261.85 673.321 259.396 674.055 257.08 675.12C254.863 676.136 252.767 677.397 250.83 678.88C249.008 680.262 247.306 681.794 245.74 683.46C244.238 685.054 242.842 686.744 241.56 688.52C239.113 691.945 237.01 695.603 235.28 699.44C232.115 706.841 229.946 714.629 228.83 722.6C228.53 724.6 228.23 726.48 227.98 728.42L227.59 731.33C227.47 732.33 227.39 733.26 227.25 734.23C226.78 738.09 226.35 741.94 225.59 745.79L244.11 746.43C243.704 742.967 243.667 739.471 244 736C244.288 732.548 244.795 729.117 245.52 725.73C246.225 722.398 247.096 719.104 248.13 715.86C249.13 712.66 250.24 709.51 251.49 706.51C252.11 705.01 252.74 703.51 253.49 702.11C254.24 700.71 254.91 699.29 255.7 697.97C256.454 696.67 257.282 695.415 258.18 694.21C259.011 693.073 259.934 692.006 260.94 691.02C261.852 690.136 262.858 689.355 263.94 688.69C264.921 688.091 265.991 687.652 267.11 687.39C268.35 687.114 269.62 686.996 270.89 687.04C272.262 687.094 273.623 687.299 274.95 687.65C277.767 688.442 280.391 689.803 282.66 691.65C284.968 693.53 286.989 695.736 288.66 698.2C289.51 699.43 290.28 700.7 291.02 701.99C291.76 703.28 292.42 704.62 293.08 705.99L293.55 706.99L293.67 707.24L293.82 707.55L294.24 708.37C294.52 708.91 294.8 709.47 295.1 709.99C295.4 710.51 295.72 710.99 296.04 711.52C297.309 713.447 298.759 715.249 300.37 716.9C303.357 719.956 306.717 722.624 310.37 724.84C312.095 725.929 313.874 726.93 315.7 727.84C317.49 728.73 319.32 729.53 321.16 730.25C324.811 731.684 328.569 732.828 332.4 733.67C334.31 734.08 336.22 734.43 338.16 734.67C340.098 734.905 342.048 735.015 344 735L344.56 733.33Z" fill="#7BCE34"/>
<path d="M227.59 731.4L227.98 728.49C228.23 726.55 228.53 724.62 228.83 722.67C229.946 714.699 232.115 706.911 235.28 699.51C237.01 695.673 239.113 692.015 241.56 688.59C242.842 686.815 244.238 685.124 245.74 683.53C247.306 681.864 249.008 680.332 250.83 678.95C251.903 678.139 253.021 677.391 254.18 676.71C276.77 677.98 284.25 688.87 286.71 695.71C285.468 694.201 284.07 692.827 282.54 691.61C280.271 689.763 277.647 688.402 274.83 687.61C273.503 687.259 272.142 687.054 270.77 687C269.5 686.956 268.23 687.074 266.99 687.35C265.871 687.612 264.801 688.051 263.82 688.65C262.738 689.315 261.732 690.096 260.82 690.98C259.814 691.966 258.891 693.033 258.06 694.17C257.162 695.375 256.334 696.63 255.58 697.93C254.79 699.25 254.06 700.64 253.37 702.07C252.68 703.5 252.02 704.97 251.37 706.47C250.12 709.47 249.04 712.62 248.01 715.82C246.976 719.064 246.105 722.359 245.4 725.69C244.714 729.093 244.247 732.537 244 736C243.679 739.496 243.732 743.016 244.16 746.5L225.64 745.86C226.4 742.01 226.83 738.16 227.3 734.3C227.39 733.33 227.47 732.36 227.59 731.4Z" fill="#3C8F2D"/>
<path d="M82.17 733.33C88.09 728.42 93.9 723.93 99.25 719.33C101.91 717.02 104.49 714.73 106.81 712.33C109.044 710.122 111.101 707.742 112.96 705.21C113.775 704.089 114.533 702.928 115.23 701.73C115.377 701.443 115.537 701.163 115.71 700.89C115.87 700.61 115.99 700.33 116.13 700.06L117.43 697.51C118.486 695.59 119.679 693.748 121 692C122.34 690.235 123.8 688.564 125.37 687C128.536 683.896 132.085 681.207 135.93 679C139.797 676.737 143.951 675.004 148.28 673.85C150.52 673.259 152.81 672.878 155.12 672.71C157.536 672.517 159.966 672.607 162.36 672.98C164.88 673.362 167.334 674.096 169.65 675.16C171.87 676.204 173.966 677.492 175.9 679C177.719 680.382 179.418 681.914 180.98 683.58C182.488 685.172 183.887 686.862 185.17 688.64C187.617 692.065 189.72 695.723 191.45 699.56C194.615 706.961 196.784 714.749 197.9 722.72C198.2 724.72 198.5 726.6 198.75 728.54L199.14 731.45C199.25 732.45 199.34 733.38 199.48 734.35C199.94 738.21 200.38 742.06 201.14 745.91L182.62 746.55C183.048 743.066 183.101 739.546 182.78 736.05C182.492 732.598 181.985 729.168 181.26 725.78C180.54 722.41 179.66 719.12 178.65 715.91C177.64 712.7 176.54 709.56 175.29 706.56C174.67 705.06 174.04 703.56 173.29 702.16C172.54 700.76 171.87 699.34 171.08 698.02C170.322 696.723 169.494 695.467 168.6 694.26C167.766 693.122 166.839 692.056 165.83 691.07C164.92 690.184 163.914 689.402 162.83 688.74C161.848 688.142 160.779 687.704 159.66 687.44C158.463 687.143 157.233 686.996 156 687C154.628 687.053 153.267 687.258 151.94 687.61C149.123 688.402 146.499 689.763 144.23 691.61C141.922 693.49 139.901 695.696 138.23 698.16C137.38 699.39 136.61 700.66 135.87 701.95C135.13 703.24 134.47 704.58 133.8 705.95L133.33 706.95L133.22 707.2C133.22 707.29 133.15 707.35 133.07 707.51L132.65 708.33C132.36 708.87 132.09 709.43 131.79 709.95C131.49 710.47 131.17 710.95 130.79 711.48C129.525 713.407 128.078 715.208 126.47 716.86C123.483 719.916 120.123 722.584 116.47 724.8C114.745 725.889 112.966 726.89 111.14 727.8C109.34 728.693 107.52 729.497 105.68 730.21C102.029 731.644 98.2708 732.788 94.44 733.63C92.53 734.04 90.61 734.39 88.68 734.63C86.7279 734.9 84.7605 735.043 82.79 735.06L82.17 733.33Z" fill="#7BCE34"/>
<path d="M199.14 731.4L198.75 728.49C198.5 726.55 198.2 724.62 197.9 722.67C196.784 714.699 194.615 706.911 191.45 699.51C189.72 695.673 187.617 692.015 185.17 688.59C183.887 686.812 182.488 685.122 180.98 683.53C179.416 681.881 177.717 680.366 175.9 679C174.827 678.189 173.709 677.441 172.55 676.76C150 678 142.48 688.87 140 695.71C141.248 694.203 142.649 692.829 144.18 691.61C146.449 689.763 149.073 688.402 151.89 687.61C153.233 687.254 154.612 687.05 156 687C157.27 686.956 158.54 687.074 159.78 687.35C160.899 687.613 161.968 688.052 162.95 688.65C164.034 689.312 165.04 690.094 165.95 690.98C166.959 691.965 167.886 693.032 168.72 694.17C169.614 695.377 170.442 696.633 171.2 697.93C171.99 699.25 172.72 700.64 173.41 702.07C174.1 703.5 174.76 704.97 175.41 706.47C176.66 709.47 177.74 712.62 178.77 715.82C179.8 719.02 180.66 722.32 181.38 725.69C182.066 729.093 182.534 732.537 182.78 736C183.101 739.496 183.048 743.016 182.62 746.5L201.14 745.86C200.38 742.01 199.94 738.16 199.48 734.3C199.34 733.33 199.25 732.36 199.14 731.4Z" fill="#3C8F2D"/>
<path d="M245.74 824.65H189.74C186.245 824.648 182.867 823.393 180.219 821.112C177.571 818.831 175.829 815.676 175.31 812.22L165.44 746.47C164.75 741.91 198.27 745.47 218.79 745.32C238.12 745.12 269.72 743.32 269.38 745.6L260.19 812.22C259.668 815.678 257.923 818.835 255.271 821.116C252.62 823.397 249.238 824.651 245.74 824.65V824.65Z" fill="#ABBCCA"/>
<path d="M217.38 745.33C196.86 745.54 164.73 741.91 165.38 746.47L175.25 812.22C175.769 815.676 177.511 818.831 180.159 821.112C182.807 823.393 186.185 824.648 189.68 824.65H211.84C206.03 818.222 202.782 809.884 202.71 801.22C202.71 799.43 202.93 787.9 211.31 778.69C216.31 773.19 224.43 770.38 240.67 764.75C248.47 762.05 254.67 760.68 261.42 754.97C264.262 752.693 266.835 750.1 269.09 747.24L269.32 745.6C269.7 743.32 236.72 745.14 217.38 745.33Z" fill="#91A6B5"/>
<path d="M1111.91 666.65H943.36V823.28H1111.91V666.65Z" fill="#C9EFFB"/>
<path d="M1117.83 657.8H937.45V666.65H1117.83V657.8Z" fill="#C9EFFB"/>
<path d="M1111.91 666.65H943.36V674.9H1111.91V666.65Z" fill="#80CBE8"/>
<path d="M983 616.06H1019.08V639.76C1019.08 644.534 1017.18 649.112 1013.81 652.488C1010.43 655.864 1005.85 657.76 1001.08 657.76V657.76C996.306 657.76 991.728 655.864 988.352 652.488C984.976 649.112 983.08 644.534 983.08 639.76V616.06H983ZM1072.16 616.06H1108.24V639.76C1108.24 644.534 1106.34 649.112 1102.97 652.488C1099.59 655.864 1095.01 657.76 1090.24 657.76C1085.47 657.76 1080.89 655.864 1077.51 652.488C1074.14 649.112 1072.24 644.534 1072.24 639.76V616.06H1072.16Z" fill="#80CBE8"/>
<path d="M983.02 630.97H1019.09" stroke="#FDFCF8" stroke-width="3" stroke-miterlimit="10"/>
<path d="M1072.16 630.97H1108.24" stroke="#FDFCF8" stroke-width="3" stroke-miterlimit="10"/>
<path d="M943.36 709.98H1111.92" stroke="#FDFCF8" stroke-width="3" stroke-miterlimit="10"/>
<path d="M943.36 748.74H1111.92" stroke="#FDFCF8" stroke-width="3" stroke-miterlimit="10"/>
<path d="M943.36 787.5H1111.92" stroke="#FDFCF8" stroke-width="3" stroke-miterlimit="10"/>
<path d="M1027.64 695.86C1031.21 695.86 1034.1 692.968 1034.1 689.4C1034.1 685.832 1031.21 682.94 1027.64 682.94C1024.07 682.94 1021.18 685.832 1021.18 689.4C1021.18 692.968 1024.07 695.86 1027.64 695.86Z" fill="#80CBE8"/>
<path d="M1027.64 735.82C1031.21 735.82 1034.1 732.928 1034.1 729.36C1034.1 725.792 1031.21 722.9 1027.64 722.9C1024.07 722.9 1021.18 725.792 1021.18 729.36C1021.18 732.928 1024.07 735.82 1027.64 735.82Z" fill="#80CBE8"/>
<path d="M1027.64 775.77C1031.21 775.77 1034.1 772.878 1034.1 769.31C1034.1 765.742 1031.21 762.85 1027.64 762.85C1024.07 762.85 1021.18 765.742 1021.18 769.31C1021.18 772.878 1024.07 775.77 1027.64 775.77Z" fill="#80CBE8"/>
<path d="M1027.64 815.72C1031.21 815.72 1034.1 812.828 1034.1 809.26C1034.1 805.692 1031.21 802.8 1027.64 802.8C1024.07 802.8 1021.18 805.692 1021.18 809.26C1021.18 812.828 1024.07 815.72 1027.64 815.72Z" fill="#80CBE8"/>
<path d="M343.51 303H230.51C229.696 303 228.915 302.677 228.339 302.101C227.763 301.525 227.44 300.744 227.44 299.93V177.6C227.443 176.787 227.767 176.007 228.342 175.432C228.917 174.857 229.697 174.533 230.51 174.53H364.44C365.253 174.533 366.033 174.857 366.608 175.432C367.183 176.007 367.507 176.787 367.51 177.6V279.87L343.51 303Z" fill="#A2AEE6"/>
<path d="M320.47 202.76H300.59V222.64H320.47V202.76Z" fill="#C0D6F2"/>
<path d="M348.05 202.76H328.17V222.64H348.05V202.76Z" fill="#C0D6F2"/>
<path d="M320.47 227.3H300.59V247.18H320.47V227.3Z" fill="#C0D6F2"/>
<path d="M348.05 227.3H328.17V247.18H348.05V227.3Z" fill="#C0D6F2"/>
<path d="M320.47 251.84H300.59V271.72H320.47V251.84Z" fill="#C0D6F2"/>
<path d="M348.05 251.84H328.17V271.72H348.05V251.84Z" fill="#C0D6F2"/>
<path d="M265.09 251.84H245.21V271.72H265.09V251.84Z" fill="#C0D6F2"/>
<path d="M265.09 276.36H245.21V296.24H265.09V276.36Z" fill="#C0D6F2"/>
<path d="M265.09 227.3H245.21V247.18H265.09V227.3Z" fill="#C0D6F2"/>
<path d="M292.1 251.84H272.22V271.72H292.1V251.84Z" fill="#C0D6F2"/>
<path d="M292.1 227.3H272.22V247.18H292.1V227.3Z" fill="#C0D6F2"/>
<path d="M364.44 303C365.254 303 366.035 302.677 366.611 302.101C367.187 301.525 367.51 300.744 367.51 299.93V279.93L343.51 303.02L364.44 303Z" fill="#A2AEE6"/>
<path d="M251.48 188.92C250.87 188.92 250.285 188.678 249.854 188.246C249.422 187.815 249.18 187.23 249.18 186.62V164.53C249.18 163.92 249.422 163.335 249.854 162.904C250.285 162.472 250.87 162.23 251.48 162.23C252.09 162.23 252.675 162.472 253.106 162.904C253.538 163.335 253.78 163.92 253.78 164.53V186.62C253.78 187.23 253.538 187.815 253.106 188.246C252.675 188.678 252.09 188.92 251.48 188.92ZM236.14 188.92C235.53 188.92 234.945 188.678 234.514 188.246C234.082 187.815 233.84 187.23 233.84 186.62V164.53C233.84 164.228 233.899 163.929 234.015 163.65C234.131 163.371 234.3 163.117 234.514 162.904C234.727 162.69 234.981 162.521 235.26 162.405C235.539 162.289 235.838 162.23 236.14 162.23C236.442 162.23 236.741 162.289 237.02 162.405C237.299 162.521 237.553 162.69 237.766 162.904C237.98 163.117 238.149 163.371 238.265 163.65C238.38 163.929 238.44 164.228 238.44 164.53V186.62C238.44 187.23 238.198 187.815 237.766 188.246C237.335 188.678 236.75 188.92 236.14 188.92V188.92ZM266.82 188.92C266.518 188.92 266.219 188.86 265.94 188.745C265.661 188.629 265.407 188.46 265.194 188.246C264.98 188.033 264.811 187.779 264.695 187.5C264.579 187.221 264.52 186.922 264.52 186.62V164.53C264.52 163.92 264.762 163.335 265.194 162.904C265.625 162.472 266.21 162.23 266.82 162.23C267.43 162.23 268.015 162.472 268.446 162.904C268.878 163.335 269.12 163.92 269.12 164.53V186.62C269.12 187.23 268.878 187.815 268.446 188.246C268.015 188.678 267.43 188.92 266.82 188.92ZM282.16 188.92C281.858 188.921 281.558 188.863 281.278 188.748C280.999 188.632 280.745 188.463 280.531 188.249C280.317 188.035 280.147 187.781 280.032 187.502C279.917 187.222 279.859 186.922 279.86 186.62V164.53C279.86 163.92 280.102 163.335 280.534 162.904C280.965 162.472 281.55 162.23 282.16 162.23C282.77 162.23 283.355 162.472 283.786 162.904C284.218 163.335 284.46 163.92 284.46 164.53V186.62C284.46 187.23 284.218 187.815 283.786 188.246C283.355 188.678 282.77 188.92 282.16 188.92ZM297.49 188.92C296.88 188.92 296.295 188.678 295.864 188.246C295.432 187.815 295.19 187.23 295.19 186.62V164.53C295.229 163.945 295.488 163.396 295.916 162.996C296.344 162.595 296.909 162.372 297.495 162.372C298.081 162.372 298.646 162.595 299.074 162.996C299.502 163.396 299.761 163.945 299.8 164.53V186.62C299.8 186.923 299.74 187.223 299.624 187.502C299.508 187.782 299.337 188.036 299.123 188.25C298.908 188.464 298.653 188.633 298.373 188.748C298.093 188.863 297.793 188.921 297.49 188.92V188.92ZM312.83 188.92C312.22 188.92 311.635 188.678 311.204 188.246C310.772 187.815 310.53 187.23 310.53 186.62V164.53C310.53 163.92 310.772 163.335 311.204 162.904C311.635 162.472 312.22 162.23 312.83 162.23C313.44 162.23 314.025 162.472 314.456 162.904C314.888 163.335 315.13 163.92 315.13 164.53V186.62C315.13 187.23 314.888 187.815 314.456 188.246C314.025 188.678 313.44 188.92 312.83 188.92ZM328.17 188.92C327.56 188.92 326.975 188.678 326.544 188.246C326.112 187.815 325.87 187.23 325.87 186.62V164.53C325.87 163.92 326.112 163.335 326.544 162.904C326.975 162.472 327.56 162.23 328.17 162.23C328.78 162.23 329.365 162.472 329.796 162.904C330.228 163.335 330.47 163.92 330.47 164.53V186.62C330.47 187.23 330.228 187.815 329.796 188.246C329.365 188.678 328.78 188.92 328.17 188.92ZM343.51 188.92C342.9 188.92 342.315 188.678 341.884 188.246C341.452 187.815 341.21 187.23 341.21 186.62V164.53C341.21 163.92 341.452 163.335 341.884 162.904C342.315 162.472 342.9 162.23 343.51 162.23C344.12 162.23 344.705 162.472 345.136 162.904C345.568 163.335 345.81 163.92 345.81 164.53V186.62C345.81 187.23 345.568 187.815 345.136 188.246C344.705 188.678 344.12 188.92 343.51 188.92ZM358.85 188.92C358.24 188.92 357.655 188.678 357.224 188.246C356.792 187.815 356.55 187.23 356.55 186.62V164.53C356.55 163.92 356.792 163.335 357.224 162.904C357.655 162.472 358.24 162.23 358.85 162.23C359.46 162.23 360.045 162.472 360.476 162.904C360.908 163.335 361.15 163.92 361.15 164.53V186.62C361.15 187.23 360.908 187.815 360.476 188.246C360.045 188.678 359.46 188.92 358.85 188.92Z" fill="#EA8826"/>
<path d="M367.4 279.76L343.41 279.98L343.62 303.07L367.4 279.76Z" fill="#C0D6F2"/>
<path d="M276.38 252.06C278.69 255.05 280.805 258.187 282.71 261.45C283.71 263.08 284.6 264.71 285.48 266.38C286.36 268.05 287.2 269.75 287.93 271.5C286.74 270.02 285.66 268.5 284.61 266.9C283.56 265.3 282.61 263.72 281.61 262.11C279.652 258.876 277.905 255.519 276.38 252.06V252.06Z" fill="#AF2F2F"/>
<path d="M287.93 252.06C286.408 255.519 284.665 258.876 282.71 262.11C281.71 263.72 280.71 265.33 279.71 266.9C278.71 268.47 277.58 270.02 276.39 271.5C277.12 269.75 277.96 268.05 278.84 266.38C279.72 264.71 280.66 263.08 281.61 261.45C283.516 258.189 285.627 255.053 287.93 252.06Z" fill="#AF2F2F"/>
<path d="M767.12 414.15H781.37V475.21C781.37 477.098 780.62 478.909 779.285 480.245C777.949 481.58 776.138 482.33 774.25 482.33V482.33C772.362 482.33 770.551 481.58 769.215 480.245C767.88 478.909 767.13 477.098 767.13 475.21V414.15H767.12Z" fill="#54A4CC"/>
<path d="M783.4 407.1H765.08V414.15H783.4V407.1Z" fill="#396E8E"/>
<path d="M774.24 482.34C776.129 482.34 777.941 481.59 779.278 480.255C780.615 478.92 781.367 477.109 781.37 475.22V419.31C779.37 422.384 777.988 425.818 777.3 429.42C776.41 433.91 777.36 435.66 778.3 444.69C779.56 456.62 780.13 462.69 777.3 466.06C773.99 470.06 769.39 468.83 767.12 473.18V475.18C767.115 476.118 767.295 477.048 767.65 477.917C768.006 478.785 768.53 479.575 769.191 480.24C769.853 480.906 770.64 481.434 771.506 481.794C772.372 482.154 773.302 482.34 774.24 482.34V482.34Z" fill="#396E8E"/>
<path d="M793.84 414.15H808.09V475.21C808.09 477.098 807.34 478.909 806.005 480.245C804.669 481.58 802.858 482.33 800.97 482.33V482.33C799.082 482.33 797.271 481.58 795.935 480.245C794.6 478.909 793.85 477.098 793.85 475.21V414.15H793.84Z" fill="#EF3E3B"/>
<path d="M810.12 407.1H791.8V414.15H810.12V407.1Z" fill="#C82833"/>
<path d="M801 482.34C802.888 482.34 804.699 481.59 806.035 480.255C807.37 478.919 808.12 477.108 808.12 475.22V419.31C806.111 422.384 804.712 425.817 804 429.42C803.11 433.91 804.07 435.66 805 444.69C806.26 456.62 806.83 462.69 804 466.06C800.7 470.06 796.09 468.83 793.83 473.18V475.18C793.825 476.123 794.007 477.057 794.365 477.929C794.724 478.8 795.252 479.592 795.919 480.258C796.586 480.924 797.378 481.451 798.251 481.809C799.123 482.166 800.057 482.347 801 482.34V482.34Z" fill="#C82833"/>
<path d="M820.55 414.15H834.8V475.21C834.8 477.098 834.05 478.909 832.715 480.245C831.379 481.58 829.568 482.33 827.68 482.33V482.33C825.792 482.33 823.981 481.58 822.645 480.245C821.31 478.909 820.56 477.098 820.56 475.21V414.15H820.55Z" fill="#54A4CC"/>
<path d="M836.84 407.1H818.52V414.15H836.84V407.1Z" fill="#396E8E"/>
<path d="M827.68 482.34C829.568 482.34 831.379 481.59 832.715 480.255C834.05 478.919 834.8 477.108 834.8 475.22V419.31C832.8 422.384 831.418 425.818 830.73 429.42C829.84 433.91 830.8 435.66 831.73 444.69C832.98 456.62 833.55 462.69 830.73 466.06C827.43 470.06 822.82 468.83 820.55 473.18V475.18C820.546 476.119 820.728 477.049 821.084 477.918C821.441 478.786 821.965 479.576 822.628 480.241C823.29 480.906 824.078 481.434 824.945 481.794C825.812 482.155 826.741 482.34 827.68 482.34V482.34Z" fill="#396E8E"/>
<path d="M847.27 414.15H861.52V475.21C861.52 477.098 860.77 478.909 859.435 480.245C858.099 481.58 856.288 482.33 854.4 482.33V482.33C852.512 482.33 850.701 481.58 849.365 480.245C848.03 478.909 847.28 477.098 847.28 475.21V414.15H847.27Z" fill="#EF3E3B"/>
<path d="M863.55 407.1H845.23V414.15H863.55V407.1Z" fill="#C82833"/>
<path d="M854.39 482.34C856.279 482.34 858.091 481.59 859.428 480.255C860.765 478.92 861.517 477.109 861.52 475.22V419.31C859.521 422.386 858.136 425.819 857.44 429.42C856.56 433.91 857.51 435.66 858.44 444.69C859.7 456.62 860.27 462.69 857.44 466.06C854.14 470.06 849.54 468.83 847.27 473.18V475.18C847.265 476.118 847.445 477.048 847.8 477.917C848.156 478.785 848.679 479.575 849.341 480.24C850.003 480.906 850.79 481.434 851.656 481.794C852.522 482.154 853.452 482.34 854.39 482.34Z" fill="#C82833"/>
<path d="M873.71 425.21V452.74H754.93V425.21H745.93V501.28H882.71V425.21H873.71ZM754.93 492.28V461.74H873.71V492.28H754.93Z" fill="#454851"/>
<path d="M446.41 447.8H383.05V461.09H446.41V447.8Z" fill="#54A4CC"/>
<path d="M376 463.05C362.739 462.888 350.086 457.465 340.823 447.974C331.561 438.483 326.448 425.701 326.61 412.44C326.772 399.179 332.195 386.526 341.686 377.263C351.177 368.001 363.959 362.888 377.22 363.05H378.22L385.76 374C361.08 376.28 341.43 393.31 341.43 413.07C341.476 422.414 345.153 431.374 351.684 438.057C358.216 444.739 367.089 448.621 376.43 448.88L376 463.05Z" fill="#54A4CC"/>
<path d="M448.11 487.31H338.08V501.28H448.11V487.31Z" fill="#54A4CC"/>
<path d="M410.64 487.31H368.06V447.8H383.05L410.64 487.31Z" fill="#E3EAF3"/>
<path d="M454.42 421.56H407.41V432.8H454.42V421.56Z" fill="#E3EAF3"/>
<path d="M461.23 415.43H400.59V421.56H461.23V415.43Z" fill="#54A4CC"/>
<path d="M442.67 432.81H419.16V447.8H442.67V432.81Z" fill="#54A4CC"/>
<path d="M430.251 391.48L421.08 400.961L425.026 404.778L434.197 395.298L430.251 391.48Z" fill="#54A4CC"/>
<path d="M366.98 331.01L358.54 339.75L352 329.48L356.5 324.82L366.98 331.01Z" fill="#54A4CC"/>
<path d="M364.946 329.02L356.498 337.752C354.317 340.007 354.376 343.603 356.631 345.784L414.331 401.602C416.586 403.783 420.182 403.723 422.363 401.468L430.81 392.736C432.992 390.481 432.932 386.885 430.677 384.704L372.977 328.887C370.723 326.705 367.127 326.765 364.946 329.02Z" fill="#E3EAF3"/>
<path d="M379.39 359.4C383.77 359.4 387.32 355.85 387.32 351.47C387.32 347.09 383.77 343.54 379.39 343.54C375.01 343.54 371.46 347.09 371.46 351.47C371.46 355.85 375.01 359.4 379.39 359.4Z" fill="#54A4CC"/>
<path d="M413.36 395.82C414.636 395.82 415.67 394.786 415.67 393.51C415.67 392.234 414.636 391.2 413.36 391.2C412.084 391.2 411.05 392.234 411.05 393.51C411.05 394.786 412.084 395.82 413.36 395.82Z" fill="#54A4CC"/>
<path d="M379.39 355.94C381.859 355.94 383.86 353.939 383.86 351.47C383.86 349.001 381.859 347 379.39 347C376.921 347 374.92 349.001 374.92 351.47C374.92 353.939 376.921 355.94 379.39 355.94Z" fill="#E3EAF3"/>
<path d="M463.27 529.47H447.27V822.51H463.27V529.47Z" fill="#A04833"/>
<path d="M863.27 521.47H337.36V757.51H863.27V521.47Z" fill="#CC7829"/>
<path d="M863.26 521.47H745.66V757.51H863.26V521.47Z" fill="#A04833"/>
<path d="M656.96 597.5H420.96V668.5H656.96V597.5Z" fill="#E3EAF3"/>
<path d="M345.36 529.47H329.36V823.01H345.36V529.47Z" fill="#CC7829"/>
<path d="M896.82 501.3H303.81V529.47H896.82V501.3Z" fill="#895237"/>
<path d="M896.82 501.3H303.81V529.47H896.82V501.3Z" fill="#A04833"/>
<path d="M896.81 501.3H712.66V529.47H896.81V501.3Z" fill="#843A2C"/>
<path d="M871.27 529.47H855.27V822.51H871.27V529.47Z" fill="#A04833"/>
<path d="M753.66 529.47H737.66V823.01H753.66V529.47Z" fill="#CC7829"/>
</svg>
