<svg xmlns="http://www.w3.org/2000/svg" xmlns:xlink="http://www.w3.org/1999/xlink"><symbol viewBox="0 0 100 100" id="consultation" xmlns="http://www.w3.org/2000/svg"><g clip-path="url(#aa)" fill="none"><path d="M91.99 37.993v-2.359a9.292 9.292 0 00-6.834-8.948v-4.658a7.317 7.317 0 002.93-5.855V7.579A7.332 7.332 0 0080.762.255H70.41a1.465 1.465 0 00-1.465 1.465v14.453a7.317 7.317 0 002.93 5.855v5.449a7.378 7.378 0 00-1.288 1.027L61.22 37.88h-9.917c-.637 0-1.271.079-1.889.234v-.526a7.298 7.298 0 00-5.108-6.98l-7.054-2.24a1.46 1.46 0 01-1.022-1.396v-3.035a9.63 9.63 0 002.924-6.914V2.446A2.45 2.45 0 0036.707 0H26.202a6.38 6.38 0 00-6.371 6.372v10.65a9.629 9.629 0 002.923 6.915v3.035a1.46 1.46 0 01-1.022 1.396l-7.053 2.24a7.298 7.298 0 00-5.109 6.98v6.57H1.465A1.465 1.465 0 000 45.621v3.287a4.401 4.401 0 002.93 4.143v43.92A3.03 3.03 0 005.957 100h4.297a1.465 1.465 0 001.39-1.002l2.261-6.785a1.464 1.464 0 011.39-1.002h36.793a1.464 1.464 0 011.39 1.002l2.261 6.785A1.466 1.466 0 0057.13 100h4.297a3.03 3.03 0 003.027-3.027V70.107h10.565l3.705 28.87a1.465 1.465 0 001.453 1.278h6.64a1.457 1.457 0 001.099-.496 1.465 1.465 0 00.355-1.151l-3.582-28.501h2.128A13.199 13.199 0 00100 56.923v-9.57a9.487 9.487 0 00-8.01-9.36zM71.875 3.185h8.887a4.4 4.4 0 014.394 4.394v1.31l-.008.006a6.101 6.101 0 01-7.035-.303l-6.185-4.794-.053-.037v-.576zm0 4.279l4.443 3.443a9.034 9.034 0 008.838 1.26v4.006a4.4 4.4 0 01-4.394 4.395h-4.493a4.399 4.399 0 01-4.394-4.395v-8.71zM82.227 23.35v3.007h-6.459a7.45 7.45 0 00-.963.064V23.35c.482.098.972.147 1.464.147h4.493c.492 0 .983-.049 1.465-.147zm-9.567 7.225a4.366 4.366 0 013.109-1.288h6.944a6.355 6.355 0 016.347 6.347v19.14a4.399 4.399 0 01-4.394 4.395H64.453v-6.117a4.402 4.402 0 002.93-4.143v-2.597a4.63 4.63 0 00.68-.562l7.101-7.096a1.465 1.465 0 00-2.07-2.072l-2.313 2.31-3.089-3.345 4.968-4.972zM51.303 40.81h10.524a1.465 1.465 0 001.036-.43l2.757-2.759 3.088 3.344-2.715 2.713a1.64 1.64 0 01-1.04.48H46.714a4.827 4.827 0 014.59-3.348zM22.761 6.372a3.446 3.446 0 013.442-3.442h10.02v7.34a7.452 7.452 0 01-3.813.3 7.424 7.424 0 01-2.054-.785 9.84 9.84 0 00-2.726-1.016 9.847 9.847 0 00-4.87.346V6.372zm0 5.853c1.566-.64 3.01-.836 4.303-.582a7.11 7.11 0 011.967.755c.878.484 1.822.836 2.803 1.044 1.454.283 2.954.24 4.39-.126v3.707a6.731 6.731 0 11-13.463 0v-4.798zM34.093 29.49a12.388 12.388 0 01-9.199-.004c.515-.737.79-1.615.79-2.514V25.9a9.646 9.646 0 007.617 0v1.072c-.001.9.275 1.78.792 2.518zM12.5 37.588a4.378 4.378 0 013.065-4.188L22 31.357a15.397 15.397 0 007.82 1.943 15.436 15.436 0 007.165-1.943L43.42 33.4a4.379 4.379 0 013.064 4.188v1.98a7.754 7.754 0 00-2.787 4.59h-3.072v-3.276a1.465 1.465 0 10-2.93 0v3.275H21.29v-3.275a1.465 1.465 0 00-2.93 0v3.275H12.5v-6.569zm49.023 59.385a.098.098 0 01-.097.097h-3.241l-1.928-5.784a4.39 4.39 0 00-4.17-3.005H15.296a4.39 4.39 0 00-4.169 3.005L9.198 97.07H5.957a.098.098 0 01-.098-.097v-43.67h55.664v43.67zm1.465-46.6H4.395A1.466 1.466 0 012.93 48.91v-1.822h41.96c.042.004.085.007.129.007h19.433v1.815a1.466 1.466 0 01-1.465 1.465zm22.168 46.952h-3.691l-3.493-27.218h3.763l3.421 27.218zM97.07 56.923a10.266 10.266 0 01-10.254 10.254H64.453v-5.078h20.213a7.333 7.333 0 007.324-7.324V40.977a6.552 6.552 0 015.08 6.376v9.57z" data-fill="true"/></g><defs fill="none"><clipPath id="aa" fill="none"><path d="M0 0h100v100H0z" data-fill="true"/></clipPath></defs></symbol><symbol viewBox="0 0 100 100" id="doctor" xmlns="http://www.w3.org/2000/svg"><path d="M63.164 47.11c-3.125 4.882-8.32 10.038-14.648 9.081-6.25-.937-10.684-6.797-13.34-12.05-.39-.762-1.309-.84-2.012-.528-.547.254-1.191-.254-1.582-.625-.8-.742-1.25-1.797-1.563-2.812-.37-1.23-.82-4.532.919-5.059.84-.254 1.132-.996 1.015-1.797v-.02c-.117-.8-1.113-1.21-1.797-1.015-.84.235-1.133 1.016-1.015 1.797v.02c.332-.606.683-1.211 1.015-1.797-3.672 1.133-3.789 5.918-2.87 8.965.937 3.066 3.866 6.523 7.362 4.882-.664-.175-1.328-.351-2.011-.527 3.066 6.074 8.281 12.383 15.39 13.438 7.598 1.132 13.848-4.512 17.657-10.489 1.035-1.582-1.504-3.047-2.52-1.465zM43.437 72.558c4.2 1.601 8.848 1.504 13.106.175 1.797-.546 1.035-3.378-.781-2.832-3.809 1.172-7.793 1.25-11.543-.175-1.758-.665-2.52 2.167-.782 2.832z" data-fill="true"/><path d="M81.504 97.441V77.324c0-4.18-2.148-7.988-5.645-10.234-2.148-1.387-4.707-1.7-7.148-2.188-2.11-.43-4.2-.84-6.309-1.27.293.216.586.45.88.665-.626-.918-1.192-1.934-1.934-2.774-1.075-1.21-3.399-1.367-3.946.41-.468 1.544-.918 3.106-1.386 4.649L50.8 84.102c-.742 2.48-1.485 4.96-2.227 7.46h2.832c-2.734-9.238-5.468-18.456-8.203-27.695-.215-.703-.41-1.406-.625-2.129-.332-1.152-1.601-1.23-2.598-1.074-.722.117-1.25.762-1.66 1.309-.547.761-1.074 1.543-1.62 2.304.292-.215.585-.449.878-.664-2.344.469-4.668.938-7.012 1.406-.859.176-1.738.352-2.597.528-2.188.43-4.18 1.543-5.801 3.047-2.559 2.363-3.691 5.742-3.691 9.16v19.668c0 1.894 2.93 1.894 2.93 0V77.304c0-3.827 2.382-7.304 6.015-8.593 1.035-.371 2.187-.527 3.281-.742 1.621-.332 3.262-.645 4.883-.977.918-.176 1.855-.37 2.773-.547.723-.136 1.25-1.21 1.641-1.757.234-.332.469-.684.703-1.016.059-.098.137-.195.195-.274.196-.273-.234.137-.136.157l-1.016-1.016c2.734 9.238 5.469 18.457 8.203 27.695.215.704.41 1.407.625 2.13.41 1.405 2.403 1.386 2.832 0 2.754-9.239 5.508-18.458 8.242-27.696.215-.703.43-1.406.625-2.129l-1.015 1.016c-.04.02-.352-.45-.02.02.176.273.371.546.547.8.313.469.645.938.957 1.387.586.86 1.895.879 2.832 1.054 2.52.508 5.059 1.016 7.578 1.524 3.946.781 7.012 4.004 7.383 8.047.156 1.719.04 3.496.04 5.215v15.8c0 1.934 2.929 1.934 2.929.04z" data-fill="true"/><path d="M39.96 80.137c-.058 1.972-1.562 3.476-3.534 3.535-1.973.059-3.477-1.64-3.535-3.535-.059-1.973 1.64-3.477 3.535-3.535 1.992-.04 3.496 1.66 3.535 3.535.059 1.894 2.988 1.894 2.93 0-.098-3.575-2.871-6.368-6.465-6.465-3.574-.098-6.367 3.027-6.465 6.465-.098 3.574 3.027 6.367 6.465 6.465 3.574.097 6.367-3.028 6.465-6.465.058-1.895-2.871-1.875-2.93 0zm22.852 9.14c-1.406-.058-1.464-1.289-1.464-2.363v-7.207c0-1.992 1.27-3.809 3.125-4.512 1.992-.742 4.062-.058 5.43 1.485.917 1.035 1.074 2.363 1.074 3.672v7.421c0 .84-.645 1.446-1.465 1.485-1.875.078-1.895 3.008 0 2.93 2.382-.118 4.394-1.934 4.394-4.395v-2.988c0-2.852.39-5.996-.86-8.633-2.089-4.414-8.124-5.45-11.777-2.441-1.796 1.484-2.792 3.652-2.831 5.976-.02.938 0 1.875 0 2.813v5.02c0 2.577 1.796 4.55 4.394 4.667 1.875.078 1.875-2.851-.02-2.93zM42.892 23.77c.644.176 1.289.43 1.914.665.156.058.293.117.449.175.332.137-.234-.097.215.098.39.176.781.352 1.172.547.879.43 1.757.898 2.597 1.406 4.492 2.656 8.282 6.426 10.782 11.172 3.164 6.016 3.613 13.066 2.597 19.688-.234 1.464 1.27 2.421 2.442 1.425 2.617-2.207 4.707-5.312 6.25-8.34 3.593-7.03 4.043-15.058 1.738-22.558-2.676-8.672-8.3-16.934-17.07-20.156-6.094-2.246-13.438-1.641-18.985 1.777-2.715 1.66-5.234 4.297-5.761 7.559.214-.293.449-.586.663-.88-1.386.938-2.226 2.54-2.831 4.044-1.7 4.297-.997 9.394.058 13.75.176.761 1.055 1.25 1.797 1.015 5.86-1.777 10.762-6.816 13.613-12.031.918-1.66-1.62-3.145-2.539-1.484-1.875 3.418-4.433 6.367-7.676 8.535a21.24 21.24 0 01-3.125 1.738c-.078.04-.136.059-.214.098-.352.156.293-.117-.02.02-.156.058-.293.116-.45.175-.116.04-.253.098-.37.137.605.332 1.21.683 1.797 1.015-.918-3.847-1.504-8.086-.157-11.914.157-.41.254-.664.567-1.21.097-.196.215-.372.332-.547.058-.079.117-.157.156-.235.156-.215-.215.274.04-.039.155-.195.331-.371.507-.547.352-.332-.215.137-.02 0 .684-.469.684-1.172.918-1.894.04-.117.078-.254.137-.371.156-.41-.117.253.059-.137a6.93 6.93 0 01.449-.84c.566-.957 1.309-1.719 2.285-2.54 1.992-1.64 4.805-2.714 7.5-3.241 6.973-1.348 14.023 1.386 18.77 6.601 3.32 3.672 5.644 8.496 7.011 13.223 1.114 3.887 1.446 8.008.781 12.012-.703 4.101-2.382 7.91-4.785 11.289a26.406 26.406 0 01-2.382 2.87c-.352.372-.704.724-1.094 1.056.82.468 1.64.957 2.441 1.425 1.211-7.851.567-15.937-3.437-22.93-2.715-4.745-6.817-8.593-11.504-11.367-2.13-1.25-4.453-2.402-6.856-3.046-1.797-.528-2.578 2.285-.761 2.793z" data-fill="true"/><path d="M67.637 73.418v-7.54c0-.683-.45-1.21-1.075-1.405.215.117.43.254.645.37-1.328-1.327-3.418.743-2.07 2.071.195.195.39.293.644.371-.351-.469-.722-.937-1.074-1.406v7.539c0 1.894 2.93 1.894 2.93 0zM42.402 62.09v-7.988c0-1.895-2.93-1.895-2.93 0v7.988c0 1.894 2.93 1.894 2.93 0zm18.125.02v-7.99c0-1.894-2.93-1.894-2.93 0v7.988c0 1.875 2.93 1.875 2.93 0zM37.91 75.155V65.37c0-1.894-2.93-1.894-2.93 0v9.785c0 1.875 2.93 1.875 2.93 0z" data-fill="true"/><path d="M38.125 62.344a1.474 1.474 0 000 2.07 1.474 1.474 0 002.07 0 1.474 1.474 0 000-2.07 1.474 1.474 0 00-2.07 0zm41.914 33.633H19.941c-1.894 0-1.894 2.93 0 2.93H80.04c1.895 0 1.895-2.93 0-2.93z" data-fill="true"/></symbol><symbol viewBox="0 0 25 25" id="message-circle" xmlns="http://www.w3.org/2000/svg"><path d="M21.488 11.641a8.38 8.38 0 01-.9 3.8 8.5 8.5 0 01-7.6 4.7 8.38 8.38 0 01-3.8-.9l-5.7 1.9 1.9-5.7a8.38 8.38 0 01-.9-3.8 8.5 8.5 0 014.7-7.6 8.38 8.38 0 013.8-.9h.5a8.48 8.48 0 018 8v.5z" data-stroke="true" fill="none"/></symbol><symbol viewBox="0 0 25 25" id="phone" xmlns="http://www.w3.org/2000/svg"><path d="M22.488 17.061v3a2 2 0 01-2.18 2 19.79 19.79 0 01-8.63-3.07 19.5 19.5 0 01-6-6 19.79 19.79 0 01-3.07-8.67 2 2 0 011.99-2.18h3a2 2 0 012 1.72c.126.96.361 1.903.7 2.81a2 2 0 01-.45 2.11l-1.27 1.27a15.999 15.999 0 006 6l1.27-1.27a2 2 0 012.11-.45c.907.339 1.85.574 2.81.7a2 2 0 011.72 2.03z" data-stroke="true" fill="none"/></symbol><symbol viewBox="0 0 93 93" id="surgery" xmlns="http://www.w3.org/2000/svg"><path d="M56.938 23.66h-3.126v3.224h3.126v-3.223z" data-fill="true"/><path d="M44.438 17.313v7.376a6.344 6.344 0 001.874 4.519l.296.294a3.256 3.256 0 01.955 2.309v3.558a6.23 6.23 0 00-3.126 5.381v39.844a5.469 5.469 0 005.47 5.469h1.562a5.468 5.468 0 005.468-5.47V30.009h-3.124V34.5h-3.126v-2.69a6.356 6.356 0 00-1.874-4.52l-.297-.295a3.242 3.242 0 01-.953-2.306v-7.377a7.825 7.825 0 016.25-7.656v10.878h3.124V6.375h-1.562a10.952 10.952 0 00-10.938 10.938zm9.374 63.28a2.343 2.343 0 01-2.343 2.344h-1.563a2.343 2.343 0 01-2.343-2.343V45.438h6.25v35.156zm0-42.968v4.688h-6.25V40.75a3.125 3.125 0 013.126-3.125h3.124zm39.102 31.114a14.663 14.663 0 00-3.517-8.719 20.997 20.997 0 00-2.561-2.417 8.391 8.391 0 01-1.988-2.09 10.147 10.147 0 01-1.312-6.788 1.482 1.482 0 00-.036-.39v-8.776l.056-.076L78.95 7.18a1.719 1.719 0 00-3.402 0l-4.501 31.58a1.68 1.68 0 00.016.274 1.554 1.554 0 00-.063.313v9.062c0 .047.023.086.027.133-.01.062-.017.124-.018.186a10.16 10.16 0 01-1.312 6.79 8.406 8.406 0 01-1.978 2.085 20.996 20.996 0 00-2.563 2.417 14.664 14.664 0 00-3.531 8.722 16.89 16.89 0 001.695 8.57 21.51 21.51 0 006.742 8.438 1.563 1.563 0 001.876-2.5 18.374 18.374 0 01-5.763-7.188 13.887 13.887 0 01-1.425-7.056 11.58 11.58 0 012.733-6.901 17.752 17.752 0 012.219-2.088 11.346 11.346 0 002.607-2.78c1.338-2.124 2-4.604 1.899-7.112h6.13a12.386 12.386 0 001.912 7.11 11.356 11.356 0 002.608 2.782c.798.631 1.54 1.33 2.219 2.088a11.572 11.572 0 012.732 6.903 13.887 13.887 0 01-1.436 7.05 18.368 18.368 0 01-5.76 7.187 1.563 1.563 0 001.874 2.5 21.51 21.51 0 006.738-8.437 16.897 16.897 0 001.69-8.569zM74.125 40.75h6.25V47h-6.25v-6.25zm3.125-23.356l2.886 20.231h-5.77l2.884-20.231z" data-fill="true"/><path d="M78.813 42.313h-3.126v3.124h3.126v-3.124zM30.34 71.037a7.725 7.725 0 00-4.282 2.5L21.625 51.42l8.656-43.192a1.563 1.563 0 10-3.064-.614L20.03 43.466 12.842 7.613a1.563 1.563 0 00-3.064.614l8.653 43.192-4.43 22.11a7.79 7.79 0 00-13.47 3.635 7.812 7.812 0 0015.32 3.069l4.179-20.86 4.18 20.86a7.828 7.828 0 007.656 6.278 7.67 7.67 0 001.534-.156 7.813 7.813 0 10-3.067-15.313l.008-.005zM10.796 82.6a4.64 4.64 0 01-3.518.697 4.688 4.688 0 113.518-.699v.002zm22 .697a4.688 4.688 0 113.674-5.516 4.7 4.7 0 01-3.674 5.514v.002z" data-fill="true"/></symbol><symbol viewBox="0 0 25 25" id="user" xmlns="http://www.w3.org/2000/svg"><path d="M20.57 21.344v-2a4 4 0 00-4-4h-8a4 4 0 00-4 4v2m8-10a4 4 0 100-8 4 4 0 000 8z" data-stroke="true" fill="none"/></symbol><symbol viewBox="0 0 28 28" id="сontact" xmlns="http://www.w3.org/2000/svg"><path d="M5 7.5c-.3 0-.5-.2-.5-.5V5c0-.3.2-.5.5-.5s.5.2.5.5v2c0 .3-.2.5-.5.5zm0 8c-.3 0-.5-.2-.5-.5v-2c0-.3.2-.5.5-.5s.5.2.5.5v2c0 .3-.2.5-.5.5zm0 8c-.3 0-.5-.2-.5-.5v-2c0-.3.2-.5.5-.5s.5.2.5.5v2c0 .3-.2.5-.5.5zm0-12c-.3 0-.5-.2-.5-.5V9c0-.3.2-.5.5-.5s.5.2.5.5v2c0 .3-.2.5-.5.5zm0 8c-.3 0-.5-.2-.5-.5v-2c0-.3.2-.5.5-.5s.5.2.5.5v2c0 .3-.2.5-.5.5z" data-fill="true"/><path d="M22 27.5H6c-.8 0-1.5-.7-1.5-1.5v-1c0-.3.2-.5.5-.5s.5.2.5.5v1c0 .3.2.5.5.5h16c1.4 0 2.5-1.1 2.5-2.5V4c0-1.4-1.1-2.5-2.5-2.5H6c-.3 0-.5.2-.5.5v1c0 .3-.2.5-.5.5s-.5-.2-.5-.5V2c0-.8.7-1.5 1.5-1.5h16c1.9 0 3.5 1.6 3.5 3.5v20c0 1.9-1.6 3.5-3.5 3.5z" data-fill="true"/><path d="M6 5.5H4c-.8 0-1.5-.7-1.5-1.5S3.2 2.5 4 2.5h2c.8 0 1.5.7 1.5 1.5S6.8 5.5 6 5.5zm-2-2c-.3 0-.5.2-.5.5s.2.5.5.5h2c.3 0 .5-.2.5-.5s-.2-.5-.5-.5H4zm2 6H4c-.8 0-1.5-.7-1.5-1.5S3.2 6.5 4 6.5h2c.8 0 1.5.7 1.5 1.5S6.8 9.5 6 9.5zm-2-2c-.3 0-.5.2-.5.5s.2.5.5.5h2c.3 0 .5-.2.5-.5s-.2-.5-.5-.5H4zm2 6H4c-.8 0-1.5-.7-1.5-1.5s.7-1.5 1.5-1.5h2c.8 0 1.5.7 1.5 1.5s-.7 1.5-1.5 1.5zm-2-2c-.3 0-.5.2-.5.5s.2.5.5.5h2c.3 0 .5-.2.5-.5s-.2-.5-.5-.5H4zm2 6H4c-.8 0-1.5-.7-1.5-1.5s.7-1.5 1.5-1.5h2c.8 0 1.5.7 1.5 1.5s-.7 1.5-1.5 1.5zm-2-2c-.3 0-.5.2-.5.5s.2.5.5.5h2c.3 0 .5-.2.5-.5s-.2-.5-.5-.5H4zm2 6H4c-.8 0-1.5-.7-1.5-1.5s.7-1.5 1.5-1.5h2c.8 0 1.5.7 1.5 1.5s-.7 1.5-1.5 1.5zm-2-2c-.3 0-.5.2-.5.5s.2.5.5.5h2c.3 0 .5-.2.5-.5s-.2-.5-.5-.5H4zm2 6H4c-.8 0-1.5-.7-1.5-1.5s.7-1.5 1.5-1.5h2c.8 0 1.5.7 1.5 1.5s-.7 1.5-1.5 1.5zm-2-2c-.3 0-.5.2-.5.5s.2.5.5.5h2c.3 0 .5-.2.5-.5s-.2-.5-.5-.5H4zm11.5-4c-1.7 0-3-1.3-3-3s1.3-3 3-3c.6 0 1.3.2 1.8.6.1.1.2.2.2.4v4c0 .2-.1.3-.2.4-.5.4-1.2.6-1.8.6zm0-5c-1.1 0-2 .9-2 2s.9 2 2 2c.4 0 .7-.1 1-.3v-3.4c-.3-.2-.6-.3-1-.3z" data-fill="true"/><path d="M15 21.5c-2.8 0-5-2.2-5-5s2.2-5 5-5 5 2.2 5 5c0 1-.3 2-.8 2.8-.1.1-.2.2-.4.2H17c-.3 0-.5-.2-.5-.5v-5c0-.3.2-.5.5-.5s.5.2.5.5v4.5h1c.4-.6.5-1.3.5-2 0-2.2-1.8-4-4-4s-4 1.8-4 4 1.8 4 4 4c.6 0 1.2-.1 1.8-.4.2-.1.5 0 .7.2.1.2 0 .5-.2.7-.8.3-1.5.5-2.3.5z" data-fill="true"/></symbol></svg>